<svg xmlns="http://www.w3.org/2000/svg" width="20" height="20" fill="none" viewBox="0 0 20 20">
  <g clip-path="url(#a)">
    <path fill="#fff" fill-rule="evenodd" d="M10 15a5 5 0 1 0 0-10 5 5 0 0 0 0 10Zm0-1.667a3.333 3.333 0 1 0 0-6.666 3.333 3.333 0 0 0 0 6.666Z" clip-rule="evenodd"/>
    <path fill="#fff" d="M15 4.167a.833.833 0 1 0 0 1.666.833.833 0 0 0 0-1.667Z"/>
    <path fill="#fff" fill-rule="evenodd" d="M1.378 3.564c-.545 1.07-.545 2.47-.545 5.27v2.333c0 2.8 0 4.2.545 5.27a5 5 0 0 0 2.185 2.185c1.07.545 2.47.545 5.27.545h2.334c2.8 0 4.2 0 5.27-.545a4.998 4.998 0 0 0 2.185-2.185c.545-1.07.545-2.47.545-5.27V8.834c0-2.8 0-4.2-.545-5.27a5 5 0 0 0-2.185-2.186c-1.07-.545-2.47-.545-5.27-.545H8.833c-2.8 0-4.2 0-5.27.545a5 5 0 0 0-2.185 2.186ZM11.167 2.5H8.833c-1.427 0-2.398.001-3.148.063-.73.06-1.104.168-1.365.3-.627.32-1.137.83-1.457 1.457-.132.26-.24.635-.3 1.365-.062.75-.063 1.72-.063 3.149v2.333c0 1.428.001 2.398.063 3.148.06.73.168 1.104.3 1.365.32.627.83 1.137 1.457 1.457.26.133.634.24 1.365.3.75.062 1.72.063 3.148.063h2.334c1.427 0 2.398-.001 3.148-.062.73-.06 1.104-.168 1.365-.301a3.334 3.334 0 0 0 1.457-1.457c.133-.26.24-.634.3-1.365.062-.75.063-1.72.063-3.148V8.834c0-1.428-.001-2.399-.063-3.149-.06-.73-.168-1.104-.3-1.365a3.333 3.333 0 0 0-1.457-1.457c-.26-.132-.634-.24-1.365-.3-.75-.062-1.72-.063-3.148-.063Z" clip-rule="evenodd"/>
  </g>
  <defs>
    <clipPath id="a">
      <path fill="#fff" d="M0 0h20v20H0z"/>
    </clipPath>
  </defs>
</svg>
