<svg xmlns="http://www.w3.org/2000/svg" width="20" height="20" fill="none" viewBox="0 0 20 20">
  <g clip-path="url(#a)">
    <path fill="#fff" fill-rule="evenodd" d="M20 20h-4v-6.999c0-1.92-.847-2.991-2.366-2.991C11.981 10.01 11 11.126 11 13v7H7V7h4v1.462s1.255-2.202 4.083-2.202C17.912 6.26 20 7.986 20 11.558V20ZM2.442 4.92A2.451 2.451 0 0 1 0 2.46 2.451 2.451 0 0 1 2.442 0a2.451 2.451 0 0 1 2.441 2.46 2.45 2.45 0 0 1-2.441 2.46ZM0 20h5V7H0v13Z" clip-rule="evenodd"/>
  </g>
  <defs>
    <clipPath id="a">
      <path fill="#fff" d="M0 0h20v20H0z"/>
    </clipPath>
  </defs>
</svg>
