<svg xmlns="http://www.w3.org/2000/svg" width="20" height="20" fill="none" viewBox="0 0 20 20">
  <path fill="#fff" d="M3.125 12.188c0-2.876 1.438-5.876 3.125-5.876.938 0 1.688.563 2.875 2.25-1.125 1.75-1.813 2.813-1.813 2.813-1.5 2.375-2 2.875-2.812 2.875-.813.063-1.375-.688-1.375-2.063Zm9.813-1.063-1.063-1.75c-.25-.438-.563-.875-.813-1.25.938-1.438 1.688-2.188 2.626-2.188 1.874 0 3.374 2.813 3.374 6.313 0 1.313-.437 2.063-1.312 2.063s-1.188-.563-2.813-3.188Zm-2.688-4.25c-1.375-1.813-2.563-2.5-3.938-2.5-2.875 0-5.062 3.813-5.062 7.813 0 2.5 1.188 4.062 3.188 4.062 1.437 0 2.437-.688 4.312-3.938 0 0 .75-1.374 1.313-2.312.187.313.374.625.562 1l.875 1.5c1.688 2.875 2.625 3.813 4.313 3.813 1.937 0 3-1.625 3-4.188-.063-4.25-2.313-7.75-5-7.75-1.438 0-2.563 1.125-3.563 2.5Z"/>
</svg>
