<svg xmlns="http://www.w3.org/2000/svg" width="20" height="20" fill="none" viewBox="0 0 20 20">
  <g clip-path="url(#a)">
    <path fill="#fff" fill-rule="evenodd" d="M7.988 12.586V6.974c1.993.938 3.536 1.843 5.36 2.82-1.505.834-3.367 1.77-5.36 2.792Zm11.103-8.403c-.344-.452-.93-.805-1.553-.922-1.833-.348-13.267-.349-15.099 0-.5.094-.945.32-1.328.673C-.5 5.43.005 13.452.393 14.75c.164.563.375.968.64 1.235.343.352.812.594 1.351.703 1.51.312 9.284.486 15.122.046a2.62 2.62 0 0 0 1.39-.71c1.49-1.49 1.388-9.963.195-11.842Z" clip-rule="evenodd"/>
  </g>
  <defs>
    <clipPath id="a">
      <path fill="#fff" d="M0 0h20v20H0z"/>
    </clipPath>
  </defs>
</svg>
