<svg xmlns="http://www.w3.org/2000/svg" width="819" height="236" fill="none" viewBox="0 0 819 236">
  <path fill="#FAFAFF" d="M143.407 84.349 122.345 173H83.049l-10.688-49.984L61.044 173H21.748L.843 84.349h34.58l7.388 53.914 11.474-53.914h37.252l12.103 54.542 7.545-54.542h32.222Zm93.26 43.54c0 2.41-.157 4.715-.472 6.916h-56.114c.524 7.649 3.72 11.474 9.588 11.474 3.773 0 6.497-1.729 8.174-5.187h36.938c-1.258 6.287-3.93 11.946-8.016 16.976-3.982 4.925-9.065 8.854-15.247 11.788-6.078 2.83-12.784 4.244-20.12 4.244-8.802 0-16.661-1.834-23.577-5.501-6.811-3.668-12.155-8.907-16.033-15.718-3.772-6.916-5.658-14.985-5.658-24.206 0-9.222 1.886-17.238 5.658-24.049 3.878-6.916 9.222-12.208 16.033-15.876 6.916-3.667 14.775-5.501 23.577-5.501 8.803 0 16.609 1.834 23.421 5.501 6.916 3.563 12.26 8.698 16.032 15.404 3.877 6.706 5.816 14.618 5.816 23.735Zm-35.366-8.331c0-2.934-.943-5.135-2.829-6.602-1.887-1.572-4.244-2.357-7.074-2.357-6.182 0-9.797 2.986-10.845 8.959h20.748Zm81.296-23.106c2.201-4.087 5.345-7.283 9.431-9.588 4.192-2.41 9.169-3.615 14.933-3.615 6.916 0 13.151 1.834 18.704 5.501 5.554 3.563 9.903 8.802 13.047 15.718 3.248 6.812 4.872 14.88 4.872 24.207 0 9.326-1.624 17.447-4.872 24.363-3.144 6.811-7.493 12.05-13.047 15.718-5.553 3.563-11.788 5.344-18.704 5.344-5.764 0-10.741-1.152-14.933-3.458-4.086-2.41-7.23-5.658-9.431-9.745V173h-34.894V56.685h34.894v39.767Zm25.621 32.223c0-4.716-1.205-8.384-3.615-11.003-2.41-2.62-5.501-3.93-9.274-3.93-3.772 0-6.863 1.31-9.274 3.93-2.41 2.619-3.615 6.287-3.615 11.003 0 4.715 1.205 8.383 3.615 11.002 2.411 2.62 5.502 3.93 9.274 3.93 3.773 0 6.864-1.31 9.274-3.93 2.41-2.619 3.615-6.287 3.615-11.002Zm144.051-51.4c-6.078 0-10.951-1.623-14.618-4.872-3.668-3.248-5.502-7.335-5.502-12.26 0-5.03 1.834-9.17 5.502-12.418 3.667-3.353 8.54-5.03 14.618-5.03 5.973 0 10.793 1.677 14.46 5.03 3.668 3.249 5.502 7.388 5.502 12.418 0 4.925-1.834 9.012-5.502 12.26-3.667 3.249-8.487 4.873-14.46 4.873Zm17.29 7.074V173h-34.895V84.349h34.895Zm49.24 59.729h36.938V173h-75.134v-27.35l33.795-32.379h-33.323V84.349h73.09v27.35l-35.366 32.379Zm65.478-66.802c-6.077 0-10.95-1.624-14.617-4.873-3.668-3.248-5.502-7.335-5.502-12.26 0-5.03 1.834-9.17 5.502-12.418 3.667-3.353 8.54-5.03 14.617-5.03 5.973 0 10.794 1.677 14.461 5.03 3.668 3.249 5.502 7.388 5.502 12.418 0 4.925-1.834 9.012-5.502 12.26-3.667 3.249-8.488 4.873-14.461 4.873Zm17.291 7.073V173h-34.895V84.349h34.895Zm57.884 89.751c-8.907 0-16.923-1.834-24.048-5.501-7.126-3.668-12.732-8.907-16.819-15.718-3.982-6.916-5.973-14.985-5.973-24.206 0-9.222 1.991-17.238 5.973-24.049 4.087-6.916 9.693-12.208 16.819-15.876 7.125-3.667 15.141-5.501 24.048-5.501 8.907 0 16.924 1.834 24.049 5.501 7.126 3.668 12.68 8.96 16.662 15.876 4.086 6.811 6.13 14.827 6.13 24.049 0 9.221-2.044 17.29-6.13 24.206-3.982 6.811-9.536 12.05-16.662 15.718-7.125 3.667-15.142 5.501-24.049 5.501Zm0-30.179c3.249 0 5.973-1.257 8.174-3.772 2.2-2.62 3.301-6.445 3.301-11.474 0-5.03-1.101-8.803-3.301-11.318-2.201-2.619-4.925-3.929-8.174-3.929-3.248 0-5.973 1.31-8.173 3.929-2.201 2.515-3.301 6.288-3.301 11.318 0 5.029 1.048 8.854 3.144 11.474 2.2 2.515 4.977 3.772 8.33 3.772Zm119.89-60.2c10.165 0 18.076 3.405 23.735 10.216 5.763 6.811 8.645 16.033 8.645 27.664V173h-34.738v-46.998c0-4.191-1.152-7.492-3.458-9.902-2.2-2.515-5.187-3.772-8.959-3.772-3.877 0-6.916 1.257-9.117 3.772-2.2 2.41-3.3 5.711-3.3 9.902V173h-34.895V84.349h34.895v13.518c2.724-4.192 6.339-7.597 10.845-10.217 4.611-2.62 10.06-3.93 16.347-3.93Zm-373.981 2.814h-24.568l-30.819 54.094c-6.218 11.116-2.817 18.56 6.035 32.327l37.499-64.654 12.5 21.12c10.9-15.093 13.769-23.712-.647-42.887Zm-6.681 74.352c-3.863-10.486-1.385-18.296 7.368-31.514l25.39 44.014h-25.43l-7.328-12.5Z"/>
</svg>
