<!-- Generated by scripts/generate-commit-line-delta.mjs. Do not edit directly. -->
<svg xmlns="http://www.w3.org/2000/svg" width="1200" height="560" viewBox="0 0 1200 560" role="img" aria-labelledby="title description">
  <title id="title">Net line delta by commit</title>
  <desc id="description">A chronological line chart showing additions minus deletions for 205 commits. Each point represents one commit.</desc>
  <style>
    .heading { fill: #0f172a; font-family: sans-serif; font-size: 24px; font-weight: 700; }
    .subheading { fill: #475569; font-family: sans-serif; font-size: 14px; }
    .axis-label { fill: #64748b; font-family: sans-serif; font-size: 12px; }
  </style>
  <rect width="1200" height="560" rx="14" fill="#ffffff" />
  <rect x="0.5" y="0.5" width="1199" height="559" rx="13.5" fill="none" stroke="#dbe4ee" />
  <text x="92" y="42" class="heading">Net line delta by commit</text>
  <text x="92" y="68" class="subheading">Additions minus deletions · 205 commits · hover a point for commit details</text>
  <g>
    <line x1="92" x2="1164" y1="104.00" y2="104.00" stroke="#dbe4ee" stroke-width="1" /><text x="78" y="108.00" text-anchor="end" class="axis-label">+40k</text>
    <line x1="92" x2="1164" y1="203.00" y2="203.00" stroke="#dbe4ee" stroke-width="1" /><text x="78" y="207.00" text-anchor="end" class="axis-label">+20k</text>
    <line x1="92" x2="1164" y1="302.00" y2="302.00" stroke="#64748b" stroke-width="1.5" /><text x="78" y="306.00" text-anchor="end" class="axis-label">0</text>
    <line x1="92" x2="1164" y1="401.00" y2="401.00" stroke="#dbe4ee" stroke-width="1" /><text x="78" y="405.00" text-anchor="end" class="axis-label">-20k</text>
    <line x1="92" x2="1164" y1="500.00" y2="500.00" stroke="#dbe4ee" stroke-width="1" /><text x="78" y="504.00" text-anchor="end" class="axis-label">-40k</text>
  </g>
  <polyline points="92.00,290.89 97.25,299.04 102.51,301.89 107.76,301.93 113.02,301.98 118.27,301.90 123.53,298.38 128.78,301.97 134.04,274.13 139.29,301.55 144.55,297.78 149.80,301.99 155.06,302.00 160.31,302.06 165.57,301.99 170.82,302.00 176.08,301.41 181.33,302.00 186.59,301.26 191.84,273.66 197.10,302.00 202.35,275.24 207.61,301.90 212.86,301.81 218.12,297.31 223.37,295.67 228.63,299.99 233.88,289.37 239.14,297.64 244.39,299.93 249.65,299.12 254.90,282.37 260.16,263.48 265.41,301.98 270.67,301.25 275.92,301.75 281.18,302.00 286.43,299.26 291.69,301.99 296.94,299.05 302.20,301.89 307.45,302.00 312.71,305.13 317.96,300.75 323.22,300.20 328.47,301.31 333.73,295.72 338.98,293.73 344.24,276.64 349.49,301.78 354.75,406.63 360.00,197.37 365.25,286.10 370.51,301.70 375.76,299.59 381.02,423.68 386.27,298.93 391.53,301.98 396.78,175.07 402.04,301.96 407.29,301.53 412.55,301.33 417.80,295.85 423.06,301.96 428.31,301.23 433.57,299.04 438.82,292.25 444.08,303.31 449.33,300.56 454.59,301.88 459.84,301.97 465.10,299.01 470.35,301.95 475.61,301.99 480.86,301.23 486.12,300.19 491.37,301.27 496.63,302.65 501.88,301.91 507.14,301.69 512.39,301.58 517.65,297.03 522.90,301.83 528.16,301.92 533.41,301.94 538.67,301.89 543.92,301.90 549.18,301.86 554.43,301.92 559.69,301.93 564.94,301.96 570.20,301.98 575.45,301.94 580.71,301.99 585.96,302.00 591.22,301.99 596.47,301.87 601.73,301.95 606.98,301.03 612.24,302.00 617.49,301.73 622.75,301.96 628.00,301.91 633.25,301.97 638.51,301.99 643.76,301.97 649.02,301.98 654.27,301.79 659.53,302.00 664.78,300.69 670.04,301.49 675.29,272.83 680.55,291.14 685.80,298.32 691.06,281.45 696.31,301.86 701.57,301.85 706.82,301.74 712.08,301.96 717.33,302.00 722.59,301.94 727.84,299.08 733.10,301.56 738.35,244.80 743.61,302.00 748.86,296.93 754.12,302.00 759.37,301.99 764.63,301.81 769.88,298.52 775.14,302.09 780.39,301.99 785.65,293.88 790.90,298.22 796.16,303.52 801.41,302.00 806.67,302.00 811.92,302.00 817.18,301.99 822.43,302.11 827.69,301.92 832.94,301.84 838.20,302.00 843.45,301.98 848.71,299.44 853.96,300.96 859.22,297.49 864.47,305.03 869.73,300.50 874.98,295.77 880.24,300.83 885.49,302.54 890.75,301.52 896.00,301.95 901.25,301.60 906.51,301.88 911.76,301.99 917.02,302.52 922.27,301.76 927.53,301.24 932.78,302.00 938.04,301.99 943.29,302.06 948.55,302.00 953.80,301.98 959.06,302.18 964.31,301.46 969.57,303.24 974.82,299.91 980.08,300.99 985.33,304.39 990.59,310.09 995.84,302.52 1001.10,301.53 1006.35,301.79 1011.61,301.88 1016.86,302.00 1022.12,313.77 1027.37,299.46 1032.63,304.49 1037.88,287.97 1043.14,302.27 1048.39,288.11 1053.65,301.60 1058.90,147.67 1064.16,301.72 1069.41,301.98 1074.67,301.65 1079.92,301.98 1085.18,301.96 1090.43,301.94 1095.69,302.00 1100.94,302.00 1106.20,301.98 1111.45,301.99 1116.71,301.98 1121.96,302.00 1127.22,302.00 1132.47,301.99 1137.73,300.45 1142.98,281.79 1148.24,301.80 1153.49,296.25 1158.75,301.95 1164.00,305.01" fill="none" stroke="#4f46e5" stroke-width="2.5" stroke-linecap="round" stroke-linejoin="round" />
  <g>
    <circle cx="92.00" cy="290.89" r="2.8" fill="#0f766e"><title>96e29b8 · 2025-08-24 · +2.2k lines · Initial commit from Create Next App</title></circle>
    <circle cx="97.25" cy="299.04" r="2.8" fill="#0f766e"><title>fda3af8 · 2025-08-25 · +598 lines · template complete</title></circle>
    <circle cx="102.51" cy="301.89" r="2.8" fill="#0f766e"><title>6d98fa3 · 2025-08-25 · +22 lines · version pinning post script</title></circle>
    <circle cx="107.76" cy="301.93" r="2.8" fill="#0f766e"><title>0a9b4e0 · 2025-08-26 · +15 lines · small updates</title></circle>
    <circle cx="113.02" cy="301.98" r="2.8" fill="#0f766e"><title>e0cb2f1 · 2025-08-26 · +4 lines · keywords config</title></circle>
    <circle cx="118.27" cy="301.90" r="2.8" fill="#0f766e"><title>d89a1d6 · 2025-09-23 · +20 lines · vh-max</title></circle>
    <circle cx="123.53" cy="298.38" r="2.8" fill="#0f766e"><title>f6bf1a3 · 2025-10-28 · +731 lines · toast + error + tailwind breakpoint hook</title></circle>
    <circle cx="128.78" cy="301.97" r="2.8" fill="#0f766e"><title>31b4033 · 2025-12-02 · +7 lines · portal id feature, nav config simplfied + next16.06</title></circle>
    <circle cx="134.04" cy="274.13" r="2.8" fill="#0f766e"><title>c6d6871 · 2025-12-26 · +5.6k lines · new ui component strategy</title></circle>
    <circle cx="139.29" cy="301.55" r="2.8" fill="#0f766e"><title>f65ef72 · 2025-12-27 · +90 lines · coverting rest to new system</title></circle>
    <circle cx="144.55" cy="297.78" r="2.8" fill="#0f766e"><title>4558e58 · 2025-12-27 · +852 lines · Icon, Layout components, motion components</title></circle>
    <circle cx="149.80" cy="301.99" r="2.8" fill="#0f766e"><title>a63133a · 2025-12-27 · +2 lines · More heading sizes</title></circle>
    <circle cx="155.06" cy="302.00" r="2.8" fill="#0f766e"><title>1fd668b · 2025-12-27 · +1 lines · Small heading correction</title></circle>
    <circle cx="160.31" cy="302.06" r="2.8" fill="#be123c"><title>ac3c039 · 2025-12-28 · -12 lines · site map config</title></circle>
    <circle cx="165.57" cy="301.99" r="2.8" fill="#0f766e"><title>de4635f · 2025-12-28 · +2 lines · crash and not found with section</title></circle>
    <circle cx="170.82" cy="302.00" r="2.8" fill="#be123c"><title>719c6bc · 2026-01-01 · -1 lines · small edits</title></circle>
    <circle cx="176.08" cy="301.41" r="2.8" fill="#0f766e"><title>d724780 · 2026-01-07 · +120 lines · layout fixes</title></circle>
    <circle cx="181.33" cy="302.00" r="2.8" fill="#64748b"><title>c9c48f8 · 2026-01-10 · 0 lines · small fix</title></circle>
    <circle cx="186.59" cy="301.26" r="2.8" fill="#0f766e"><title>12af7b1 · 2026-01-11 · +150 lines · small updates</title></circle>
    <circle cx="191.84" cy="273.66" r="2.8" fill="#0f766e"><title>71cf5f4 · 2026-02-18 · +5.7k lines · Best from 8-ball project</title></circle>
    <circle cx="197.10" cy="302.00" r="2.8" fill="#be123c"><title>b898054 · 2026-02-18 · -1 lines · a</title></circle>
    <circle cx="202.35" cy="275.24" r="2.8" fill="#0f766e"><title>9e6aed3 · 2026-03-13 · +5.4k lines · Best from Argos</title></circle>
    <circle cx="207.61" cy="301.90" r="2.8" fill="#0f766e"><title>43d28e6 · 2026-03-13 · +21 lines · Read me updates</title></circle>
    <circle cx="212.86" cy="301.81" r="2.8" fill="#0f766e"><title>160f187 · 2026-03-14 · +39 lines · Small changes</title></circle>
    <circle cx="218.12" cy="297.31" r="2.8" fill="#0f766e"><title>e53e12a · 2026-03-18 · +948 lines · UPgrades from madad</title></circle>
    <circle cx="223.37" cy="295.67" r="2.8" fill="#0f766e"><title>83c8415 · 2026-03-30 · +1.3k lines · Additional Madad updates</title></circle>
    <circle cx="228.63" cy="299.99" r="2.8" fill="#0f766e"><title>6c69df2 · 2026-04-16 · +406 lines · Tazweed updates</title></circle>
    <circle cx="233.88" cy="289.37" r="2.8" fill="#0f766e"><title>6a7b5c8 · 2026-04-19 · +2.6k lines · Dashboard + Dictionary</title></circle>
    <circle cx="239.14" cy="297.64" r="2.8" fill="#0f766e"><title>e166c72 · 2026-04-19 · +881 lines · Small fixes</title></circle>
    <circle cx="244.39" cy="299.93" r="2.8" fill="#0f766e"><title>65ada20 · 2026-04-23 · +419 lines · Dashboard polish</title></circle>
    <circle cx="249.65" cy="299.12" r="2.8" fill="#0f766e"><title>6877949 · 2026-04-28 · +581 lines · Partial from Zero Emisions Platform V2</title></circle>
    <circle cx="254.90" cy="282.37" r="2.8" fill="#0f766e"><title>4a15195 · 2026-05-03 · +4k lines · Zero emisions full port + workflow updates</title></circle>
    <circle cx="260.16" cy="263.48" r="2.8" fill="#0f766e"><title>ffc9603 · 2026-05-16 · +7.8k lines · Add Payload-ready marketing content scaffold</title></circle>
    <circle cx="265.41" cy="301.98" r="2.8" fill="#0f766e"><title>2b8b6af · 2026-05-16 · +5 lines · Ignore local worktree and dev outputs</title></circle>
    <circle cx="270.67" cy="301.25" r="2.8" fill="#0f766e"><title>0b8c873 · 2026-05-16 · +151 lines · chore: clean lint and dependency warnings</title></circle>
    <circle cx="275.92" cy="301.75" r="2.8" fill="#0f766e"><title>9ffc0ec · 2026-05-16 · +50 lines · chore: update dependency patch set</title></circle>
    <circle cx="281.18" cy="302.00" r="2.8" fill="#64748b"><title>97a6087 · 2026-05-16 · 0 lines · chore: verify TypeScript 6 compatibility</title></circle>
    <circle cx="286.43" cy="299.26" r="2.8" fill="#0f766e"><title>af34369 · 2026-05-16 · +554 lines · feat: finalize template worktree ports</title></circle>
    <circle cx="291.69" cy="301.99" r="2.8" fill="#0f766e"><title>b1e3dfe · 2026-05-16 · +3 lines · feat: add image switcher primitive</title></circle>
    <circle cx="296.94" cy="299.05" r="2.8" fill="#0f766e"><title>2b4569d · 2026-05-16 · +596 lines · Add reveal group item scheduler</title></circle>
    <circle cx="302.20" cy="301.89" r="2.8" fill="#0f766e"><title>fb3cc99 · 2026-05-16 · +23 lines · fix: stabilize image switcher preload keys</title></circle>
    <circle cx="307.45" cy="302.00" r="2.8" fill="#64748b"><title>76f8938 · 2026-05-17 · 0 lines · Move playground into marketing internal group</title></circle>
    <circle cx="312.71" cy="305.13" r="2.8" fill="#be123c"><title>0cc70ee · 2026-05-17 · -632 lines · Consolidate reveal image load strategy</title></circle>
    <circle cx="317.96" cy="300.75" r="2.8" fill="#0f766e"><title>877486d · 2026-05-18 · +253 lines · Local</title></circle>
    <circle cx="323.22" cy="300.20" r="2.8" fill="#0f766e"><title>b96eb59 · 2026-05-19 · +364 lines · Document responsive rendering breakpoint guidance</title></circle>
    <circle cx="328.47" cy="301.31" r="2.8" fill="#0f766e"><title>73f29d6 · 2026-05-23 · +140 lines · Checkpoint main interaction updates</title></circle>
    <circle cx="333.73" cy="295.72" r="2.8" fill="#0f766e"><title>302871e · 2026-05-23 · +1.3k lines · Ship production updates</title></circle>
    <circle cx="338.98" cy="293.73" r="2.8" fill="#0f766e"><title>1b71eb3 · 2026-05-23 · +1.7k lines · Add template intelligence surface</title></circle>
    <circle cx="344.24" cy="276.64" r="2.8" fill="#0f766e"><title>ce1467b · 2026-05-25 · +5.1k lines · Ship production updates</title></circle>
    <circle cx="349.49" cy="301.78" r="2.8" fill="#0f766e"><title>b569257 · 2026-05-25 · +44 lines · Allow template internal routes in production</title></circle>
    <circle cx="354.75" cy="406.63" r="2.8" fill="#be123c"><title>76d6314 · 2026-06-09 · -21k lines · Add optional thin-start activation path</title></circle>
    <circle cx="360.00" cy="197.37" r="2.8" fill="#0f766e"><title>84cd3c6 · 2026-06-09 · +21k lines · Revert &quot;Add optional thin-start activation path&quot;</title></circle>
    <circle cx="365.25" cy="286.10" r="2.8" fill="#0f766e"><title>19f465b · 2026-06-09 · +3.2k lines · Add optional thin-start activation tooling</title></circle>
    <circle cx="370.51" cy="301.70" r="2.8" fill="#0f766e"><title>36d0239 · 2026-06-09 · +60 lines · Document thin-start instance activation path</title></circle>
    <circle cx="375.76" cy="299.59" r="2.8" fill="#0f766e"><title>7235466 · 2026-06-09 · +487 lines · Harden lightweight prune reset path</title></circle>
    <circle cx="381.02" cy="423.68" r="2.8" fill="#be123c"><title>c7397aa · 2026-06-09 · -25k lines · Ship production updates</title></circle>
    <circle cx="386.27" cy="298.93" r="2.8" fill="#0f766e"><title>4ef60ee · 2026-06-29 · +621 lines · chore: publish Averlo Next Template</title></circle>
    <circle cx="391.53" cy="301.98" r="2.8" fill="#0f766e"><title>76e04f3 · 2026-06-29 · +5 lines · docs: finalize Averlo README</title></circle>
    <circle cx="396.78" cy="175.07" r="2.8" fill="#0f766e"><title>948efcd · 2026-07-03 · +26k lines · Restore full template surface after accidental prune</title></circle>
    <circle cx="402.04" cy="301.96" r="2.8" fill="#0f766e"><title>18baf59 · 2026-07-03 · +9 lines · Refresh backport ledger after template recovery</title></circle>
    <circle cx="407.29" cy="301.53" r="2.8" fill="#0f766e"><title>876b9b9 · 2026-07-03 · +95 lines · Backport modal focus management</title></circle>
    <circle cx="412.55" cy="301.33" r="2.8" fill="#0f766e"><title>24ee03b · 2026-07-03 · +135 lines · Backport generic metadata helper</title></circle>
    <circle cx="417.80" cy="295.85" r="2.8" fill="#0f766e"><title>80d4d72 · 2026-07-04 · +1.2k lines · Backport markdown renderer</title></circle>
    <circle cx="423.06" cy="301.96" r="2.8" fill="#0f766e"><title>7e859b8 · 2026-07-04 · +9 lines · Reuse choice indicator in markdown tasks</title></circle>
    <circle cx="428.31" cy="301.23" r="2.8" fill="#0f766e"><title>9302a7e · 2026-07-04 · +156 lines · Move markdown renderer to composites</title></circle>
    <circle cx="433.57" cy="299.04" r="2.8" fill="#0f766e"><title>3ac8890 · 2026-07-04 · +597 lines · Include choice inputs in thin start</title></circle>
    <circle cx="438.82" cy="292.25" r="2.8" fill="#0f766e"><title>442a4ad · 2026-07-04 · +2k lines · Backport scroll performance tooling</title></circle>
    <circle cx="444.08" cy="303.31" r="2.8" fill="#be123c"><title>5f0a8ac · 2026-07-04 · -265 lines · Rebuild scroll performance tooling around page targets</title></circle>
    <circle cx="449.33" cy="300.56" r="2.8" fill="#0f766e"><title>9a50fe8 · 2026-07-04 · +291 lines · Add normalized scroll performance scoring gates</title></circle>
    <circle cx="454.59" cy="301.88" r="2.8" fill="#0f766e"><title>cfb763f · 2026-07-04 · +25 lines · Document scroll performance autoresearch harness</title></circle>
    <circle cx="459.84" cy="301.97" r="2.8" fill="#0f766e"><title>94ed9a8 · 2026-07-04 · +7 lines · Generalize fallback marketing page map</title></circle>
    <circle cx="465.10" cy="299.01" r="2.8" fill="#0f766e"><title>2416a89 · 2026-07-04 · +604 lines · Make Serena warm optional</title></circle>
    <circle cx="470.35" cy="301.95" r="2.8" fill="#0f766e"><title>149a3cd · 2026-07-04 · +10 lines · Document warm optional agent harnesses</title></circle>
    <circle cx="475.61" cy="301.99" r="2.8" fill="#0f766e"><title>2cb3408 · 2026-07-04 · +2 lines · Link scroll autoresearch harness</title></circle>
    <circle cx="480.86" cy="301.23" r="2.8" fill="#0f766e"><title>a19ed47 · 2026-07-05 · +156 lines · Add repo intelligence benchmark pilot</title></circle>
    <circle cx="486.12" cy="300.19" r="2.8" fill="#0f766e"><title>6bf5bfe · 2026-07-06 · +366 lines · Ship template orchestration and review workflow updates</title></circle>
    <circle cx="491.37" cy="301.27" r="2.8" fill="#0f766e"><title>06f0121 · 2026-07-06 · +148 lines · Port generic layer flood loading mount</title></circle>
    <circle cx="496.63" cy="302.65" r="2.8" fill="#be123c"><title>774b513 · 2026-07-07 · -132 lines · Keep loading skip override only</title></circle>
    <circle cx="501.88" cy="301.91" r="2.8" fill="#0f766e"><title>840c057 · 2026-07-07 · +19 lines · Prevent loading skip flicker</title></circle>
    <circle cx="507.14" cy="301.69" r="2.8" fill="#0f766e"><title>d6c7083 · 2026-07-07 · +63 lines · Backport reveal automation overrides</title></circle>
    <circle cx="512.39" cy="301.58" r="2.8" fill="#0f766e"><title>74864db · 2026-07-07 · +85 lines · Refactor reveal scheduler internals</title></circle>
    <circle cx="517.65" cy="297.03" r="2.8" fill="#0f766e"><title>59c1b27 · 2026-07-07 · +1k lines · Backport reusable motion and UI references</title></circle>
    <circle cx="522.90" cy="301.83" r="2.8" fill="#0f766e"><title>8654222 · 2026-07-18 · +35 lines · Stage template profile architecture decisions</title></circle>
    <circle cx="528.16" cy="301.92" r="2.8" fill="#0f766e"><title>9dbf009 · 2026-07-18 · +16 lines · Stage Panel and Card architecture</title></circle>
    <circle cx="533.41" cy="301.94" r="2.8" fill="#0f766e"><title>7496b4d · 2026-07-18 · +13 lines · Stage parallel template profile architecture</title></circle>
    <circle cx="538.67" cy="301.89" r="2.8" fill="#0f766e"><title>138fc9a · 2026-07-18 · +23 lines · Stage dashboard foundation architecture</title></circle>
    <circle cx="543.92" cy="301.90" r="2.8" fill="#0f766e"><title>7c5dd72 · 2026-07-18 · +21 lines · Stage organization-first dashboard routes</title></circle>
    <circle cx="549.18" cy="301.86" r="2.8" fill="#0f766e"><title>2987908 · 2026-07-18 · +28 lines · Stage organization context architecture</title></circle>
    <circle cx="554.43" cy="301.92" r="2.8" fill="#0f766e"><title>35e8a85 · 2026-07-18 · +16 lines · Stage organization selection and record interactions</title></circle>
    <circle cx="559.69" cy="301.93" r="2.8" fill="#0f766e"><title>381da0b · 2026-07-18 · +15 lines · Stage organization selection and settings architecture</title></circle>
    <circle cx="564.94" cy="301.96" r="2.8" fill="#0f766e"><title>f751989 · 2026-07-18 · +9 lines · Stage template instance activation boundary</title></circle>
    <circle cx="570.20" cy="301.98" r="2.8" fill="#0f766e"><title>b96a62f · 2026-07-18 · +5 lines · Stage final architecture disposition</title></circle>
    <circle cx="575.45" cy="301.94" r="2.8" fill="#0f766e"><title>601cf77 · 2026-07-18 · +13 lines · Stage template visual system parity</title></circle>
    <circle cx="580.71" cy="301.99" r="2.8" fill="#0f766e"><title>4f0a56a · 2026-07-18 · +2 lines · Stage architecture consolidation safeguards</title></circle>
    <circle cx="585.96" cy="302.00" r="2.8" fill="#0f766e"><title>609bbad · 2026-07-19 · +1 lines · Pin Inference Console visual baseline</title></circle>
    <circle cx="591.22" cy="301.99" r="2.8" fill="#0f766e"><title>0f15cbd · 2026-07-19 · +3 lines · Stage final architecture structure</title></circle>
    <circle cx="596.47" cy="301.87" r="2.8" fill="#0f766e"><title>b107890 · 2026-07-19 · +27 lines · Stage additional component convergence</title></circle>
    <circle cx="601.73" cy="301.95" r="2.8" fill="#0f766e"><title>8475bf8 · 2026-07-19 · +10 lines · Stage component dependency and parity boundaries</title></circle>
    <circle cx="606.98" cy="301.03" r="2.8" fill="#0f766e"><title>ff2c9de · 2026-07-19 · +196 lines · Consolidate template architecture</title></circle>
    <circle cx="612.24" cy="302.00" r="2.8" fill="#0f766e"><title>90fd623 · 2026-07-19 · +1 lines · Complete architecture parity review</title></circle>
    <circle cx="617.49" cy="301.73" r="2.8" fill="#0f766e"><title>58256ab · 2026-07-19 · +55 lines · Extend dashboard entity architecture</title></circle>
    <circle cx="622.75" cy="301.96" r="2.8" fill="#0f766e"><title>3ee4d97 · 2026-07-19 · +8 lines · Refine dashboard presentation boundaries</title></circle>
    <circle cx="628.00" cy="301.91" r="2.8" fill="#0f766e"><title>7469a0a · 2026-07-19 · +19 lines · Stage authentication lifecycle architecture</title></circle>
    <circle cx="633.25" cy="301.97" r="2.8" fill="#0f766e"><title>9b66eee · 2026-07-19 · +7 lines · Stage dashboard component state contracts</title></circle>
    <circle cx="638.51" cy="301.99" r="2.8" fill="#0f766e"><title>efdde78 · 2026-07-19 · +2 lines · Stage selective component boundaries</title></circle>
    <circle cx="643.76" cy="301.97" r="2.8" fill="#0f766e"><title>eda5e92 · 2026-07-19 · +7 lines · Stage command and input convergence</title></circle>
    <circle cx="649.02" cy="301.98" r="2.8" fill="#0f766e"><title>63c133a · 2026-07-19 · +5 lines · Stage remaining reusable surface contracts</title></circle>
    <circle cx="654.27" cy="301.79" r="2.8" fill="#0f766e"><title>feb352b · 2026-07-19 · +43 lines · Consolidate source rescan architecture</title></circle>
    <circle cx="659.53" cy="302.00" r="2.8" fill="#64748b"><title>8dcc3f2 · 2026-07-19 · 0 lines · Review consolidated architecture contracts</title></circle>
    <circle cx="664.78" cy="300.69" r="2.8" fill="#0f766e"><title>5061682 · 2026-07-19 · +265 lines · Refine thin-start and shared Card surfaces</title></circle>
    <circle cx="670.04" cy="301.49" r="2.8" fill="#0f766e"><title>6cb2c99 · 2026-07-19 · +103 lines · Initialize filesystem-backed inference port</title></circle>
    <circle cx="675.29" cy="272.83" r="2.8" fill="#0f766e"><title>5d79e06 · 2026-07-19 · +5.9k lines · Port shared inference visual system</title></circle>
    <circle cx="680.55" cy="291.14" r="2.8" fill="#0f766e"><title>66a08e1 · 2026-07-19 · +2.2k lines · Add provider-neutral auth and organizations</title></circle>
    <circle cx="685.80" cy="298.32" r="2.8" fill="#0f766e"><title>8140fc3 · 2026-07-20 · +744 lines · Build registry-driven dashboard shell</title></circle>
    <circle cx="691.06" cy="281.45" r="2.8" fill="#0f766e"><title>f88f569 · 2026-07-20 · +4.2k lines · Complete dashboard reference entity port</title></circle>
    <circle cx="696.31" cy="301.86" r="2.8" fill="#0f766e"><title>d5cd83f · 2026-07-20 · +29 lines · Match Card defaults to pinned source</title></circle>
    <circle cx="701.57" cy="301.85" r="2.8" fill="#0f766e"><title>0faa24a · 2026-07-20 · +31 lines · Make labeled dividers surface neutral</title></circle>
    <circle cx="706.82" cy="301.74" r="2.8" fill="#0f766e"><title>a2da053 · 2026-07-20 · +53 lines · Stage async mutation policy port</title></circle>
    <circle cx="712.08" cy="301.96" r="2.8" fill="#0f766e"><title>3c046bb · 2026-07-20 · +9 lines · Consolidate async mutation architecture</title></circle>
    <circle cx="717.33" cy="302.00" r="2.8" fill="#64748b"><title>c3f7e4d · 2026-07-20 · 0 lines · Review mutation architecture consolidation</title></circle>
    <circle cx="722.59" cy="301.94" r="2.8" fill="#0f766e"><title>b0c0505 · 2026-07-20 · +12 lines · Match InputFrame defaults to pinned source</title></circle>
    <circle cx="727.84" cy="299.08" r="2.8" fill="#0f766e"><title>415a11d · 2026-07-20 · +590 lines · Standardize modal mutation handoffs</title></circle>
    <circle cx="733.10" cy="301.56" r="2.8" fill="#0f766e"><title>b6855b8 · 2026-07-20 · +89 lines · Reorganize Button hierarchy and danger tone</title></circle>
    <circle cx="738.35" cy="244.80" r="2.8" fill="#0f766e"><title>7942996 · 2026-07-23 · +12k lines · Checkpoint accumulated port review work</title></circle>
    <circle cx="743.61" cy="302.00" r="2.8" fill="#64748b"><title>b5e0fc6 · 2026-07-23 · 0 lines · Integrate mutation policy with polished port</title></circle>
    <circle cx="748.86" cy="296.93" r="2.8" fill="#0f766e"><title>f8aa224 · 2026-07-23 · +1k lines · Harden dependencies and close out inference port</title></circle>
    <circle cx="754.12" cy="302.00" r="2.8" fill="#64748b"><title>ec620dc · 2026-07-23 · 0 lines · Keep dependency pinning idempotent</title></circle>
    <circle cx="759.37" cy="301.99" r="2.8" fill="#0f766e"><title>8f9e913 · 2026-07-23 · +3 lines · Finalize inference port handoff</title></circle>
    <circle cx="764.63" cy="301.81" r="2.8" fill="#0f766e"><title>c705d0c · 2026-07-23 · +39 lines · Stage benchmark evidence recording policy</title></circle>
    <circle cx="769.88" cy="298.52" r="2.8" fill="#0f766e"><title>71ae98c · 2026-07-23 · +704 lines · Make intelligence benchmarks evidence driven</title></circle>
    <circle cx="775.14" cy="302.09" r="2.8" fill="#be123c"><title>01a4f1e · 2026-07-23 · -18 lines · Narrow intelligence architecture to cleanup</title></circle>
    <circle cx="780.39" cy="301.99" r="2.8" fill="#0f766e"><title>5cc2c7d · 2026-07-23 · +3 lines · Clarify benchmark cleanup disposition</title></circle>
    <circle cx="785.65" cy="293.88" r="2.8" fill="#0f766e"><title>1d4a3c4 · 2026-07-23 · +1.6k lines · Add prune-aware dashboard intelligence</title></circle>
    <circle cx="790.90" cy="298.22" r="2.8" fill="#0f766e"><title>c2bd239 · 2026-07-23 · +764 lines · Integrate service assembly into homepage hero</title></circle>
    <circle cx="796.16" cy="303.52" r="2.8" fill="#be123c"><title>867bf1a · 2026-07-23 · -308 lines · Reorganize frontend ownership surfaces</title></circle>
    <circle cx="801.41" cy="302.00" r="2.8" fill="#64748b"><title>581e7e7 · 2026-07-23 · 0 lines · Integrate template intelligence updates</title></circle>
    <circle cx="806.67" cy="302.00" r="2.8" fill="#64748b"><title>ef95119 · 2026-07-23 · 0 lines · Integrate homepage service assembly</title></circle>
    <circle cx="811.92" cy="302.00" r="2.8" fill="#64748b"><title>5cdcde7 · 2026-07-23 · 0 lines · Integrate frontend ownership cleanup</title></circle>
    <circle cx="817.18" cy="301.99" r="2.8" fill="#0f766e"><title>8ff7fe1 · 2026-07-23 · +2 lines · Align thin profile integration contracts</title></circle>
    <circle cx="822.43" cy="302.11" r="2.8" fill="#be123c"><title>5b31bc3 · 2026-07-23 · -23 lines · Make home hero callouts hover only</title></circle>
    <circle cx="827.69" cy="301.92" r="2.8" fill="#0f766e"><title>7c49f3b · 2026-07-23 · +17 lines · Restore home hero callout layout motion</title></circle>
    <circle cx="832.94" cy="301.84" r="2.8" fill="#0f766e"><title>a571de5 · 2026-07-23 · +32 lines · Show dashboard redirect state reliably</title></circle>
    <circle cx="838.20" cy="302.00" r="2.8" fill="#64748b"><title>94ca212 · 2026-07-23 · 0 lines · Center dashboard status frames</title></circle>
    <circle cx="843.45" cy="301.98" r="2.8" fill="#0f766e"><title>d9d3354 · 2026-07-23 · +5 lines · Canonicalize dashboard overview route</title></circle>
    <circle cx="848.71" cy="299.44" r="2.8" fill="#0f766e"><title>732b630 · 2026-07-24 · +518 lines · Standardize dashboard page surface ownership</title></circle>
    <circle cx="853.96" cy="300.96" r="2.8" fill="#0f766e"><title>95ae3ad · 2026-07-24 · +211 lines · Split internal demo catalogue by page family</title></circle>
    <circle cx="859.22" cy="297.49" r="2.8" fill="#0f766e"><title>de19f91 · 2026-07-25 · +911 lines · Add skeleton overlap geometry pilot</title></circle>
    <circle cx="864.47" cy="305.03" r="2.8" fill="#be123c"><title>37cee75 · 2026-07-25 · -613 lines · Ship production updates</title></circle>
    <circle cx="869.73" cy="300.50" r="2.8" fill="#0f766e"><title>96248e8 · 2026-07-26 · +304 lines · feat: add template profile materialization</title></circle>
    <circle cx="874.98" cy="295.77" r="2.8" fill="#0f766e"><title>0bf79f4 · 2026-07-26 · +1.3k lines · feat: add positive template assembly engine</title></circle>
    <circle cx="880.24" cy="300.83" r="2.8" fill="#0f766e"><title>3578e63 · 2026-07-26 · +236 lines · Ship production updates</title></circle>
    <circle cx="885.49" cy="302.54" r="2.8" fill="#be123c"><title>876b384 · 2026-07-26 · -109 lines · Ship production updates</title></circle>
    <circle cx="890.75" cy="301.52" r="2.8" fill="#0f766e"><title>c7b96f8 · 2026-07-26 · +97 lines · Persist fixture sessions across redirects</title></circle>
    <circle cx="896.00" cy="301.95" r="2.8" fill="#0f766e"><title>c403398 · 2026-07-26 · +11 lines · fix: separate compact header menu gutters</title></circle>
    <circle cx="901.25" cy="301.60" r="2.8" fill="#0f766e"><title>231f622 · 2026-07-26 · +81 lines · chore: add compact header architecture demo</title></circle>
    <circle cx="906.51" cy="301.88" r="2.8" fill="#0f766e"><title>d28af2d · 2026-07-26 · +25 lines · chore: extend header architecture demo to desktop</title></circle>
    <circle cx="911.76" cy="301.99" r="2.8" fill="#0f766e"><title>fb3a789 · 2026-07-26 · +3 lines · fix: decentralize desktop header gutters</title></circle>
    <circle cx="917.02" cy="302.52" r="2.8" fill="#be123c"><title>1120941 · 2026-07-26 · -105 lines · Ship production updates</title></circle>
    <circle cx="922.27" cy="301.76" r="2.8" fill="#0f766e"><title>3b74ada · 2026-07-28 · +48 lines · Ship production updates</title></circle>
    <circle cx="927.53" cy="301.24" r="2.8" fill="#0f766e"><title>edd255a · 2026-07-29 · +154 lines · Ship production updates</title></circle>
    <circle cx="932.78" cy="302.00" r="2.8" fill="#64748b"><title>d151160 · 2026-07-29 · 0 lines · feat: route marketing CTAs to dashboard login</title></circle>
    <circle cx="938.04" cy="301.99" r="2.8" fill="#0f766e"><title>3c96130 · 2026-07-29 · +3 lines · fix: align account identity spacing</title></circle>
    <circle cx="943.29" cy="302.06" r="2.8" fill="#be123c"><title>bfe407a · 2026-07-29 · -12 lines · refactor: compose settings account identity</title></circle>
    <circle cx="948.55" cy="302.00" r="2.8" fill="#64748b"><title>ce958b1 · 2026-07-29 · 0 lines · fix: align organization identity spacing</title></circle>
    <circle cx="953.80" cy="301.98" r="2.8" fill="#0f766e"><title>716eaad · 2026-07-29 · +4 lines · fix: unify identity presentation spacing</title></circle>
    <circle cx="959.06" cy="302.18" r="2.8" fill="#be123c"><title>15e062b · 2026-07-29 · -36 lines · fix: unify entity identity presentation</title></circle>
    <circle cx="964.31" cy="301.46" r="2.8" fill="#0f766e"><title>a6ceefa · 2026-07-29 · +109 lines · refactor: centralize entity identity layout</title></circle>
    <circle cx="969.57" cy="303.24" r="2.8" fill="#be123c"><title>5b5a3d7 · 2026-07-29 · -250 lines · refactor: improve code clarity and modularize dropdown</title></circle>
    <circle cx="974.82" cy="299.91" r="2.8" fill="#0f766e"><title>146bfc2 · 2026-07-29 · +422 lines · refactor: decouple positive assembly from prune</title></circle>
    <circle cx="980.08" cy="300.99" r="2.8" fill="#0f766e"><title>ab04dd1 · 2026-07-29 · +204 lines · feat: add positive template content selection</title></circle>
    <circle cx="985.33" cy="304.39" r="2.8" fill="#be123c"><title>315a5a1 · 2026-07-29 · -483 lines · refactor: make positive assembly the only project creator</title></circle>
    <circle cx="990.59" cy="310.09" r="2.8" fill="#be123c"><title>6f21c2f · 2026-07-29 · -1.6k lines · refactor: retire template prune compatibility</title></circle>
    <circle cx="995.84" cy="302.52" r="2.8" fill="#be123c"><title>7dbf647 · 2026-07-29 · -106 lines · refactor: remove legacy prune terminology</title></circle>
    <circle cx="1001.10" cy="301.53" r="2.8" fill="#0f766e"><title>83612d2 · 2026-07-29 · +94 lines · refactor: modularize markdown editor internals</title></circle>
    <circle cx="1006.35" cy="301.79" r="2.8" fill="#0f766e"><title>abf60a3 · 2026-07-29 · +42 lines · refactor: namespace markdown composite exports</title></circle>
    <circle cx="1011.61" cy="301.88" r="2.8" fill="#0f766e"><title>722a81f · 2026-07-29 · +24 lines · docs: clarify component API ownership</title></circle>
    <circle cx="1016.86" cy="302.00" r="2.8" fill="#64748b"><title>839828e · 2026-07-29 · 0 lines · docs: name component API patterns semantically</title></circle>
    <circle cx="1022.12" cy="313.77" r="2.8" fill="#be123c"><title>7873a45 · 2026-07-29 · -2.4k lines · refactor: organize documentation by ownership</title></circle>
    <circle cx="1027.37" cy="299.46" r="2.8" fill="#0f766e"><title>e72d405 · 2026-07-29 · +513 lines · docs: organize component conventions by pattern</title></circle>
    <circle cx="1032.63" cy="304.49" r="2.8" fill="#be123c"><title>812190e · 2026-07-30 · -504 lines · Ship production updates</title></circle>
    <circle cx="1037.88" cy="287.97" r="2.8" fill="#0f766e"><title>666f822 · 2026-07-30 · +2.8k lines · Ship production updates</title></circle>
    <circle cx="1043.14" cy="302.27" r="2.8" fill="#be123c"><title>f1580f9 · 2026-07-30 · -54 lines · Ship production updates</title></circle>
    <circle cx="1048.39" cy="288.11" r="2.8" fill="#0f766e"><title>7f7f5de · 2026-07-30 · +2.8k lines · Ship production updates</title></circle>
    <circle cx="1053.65" cy="301.60" r="2.8" fill="#0f766e"><title>8aced5a · 2026-07-30 · +81 lines · Ship production updates</title></circle>
    <circle cx="1058.90" cy="147.67" r="2.8" fill="#0f766e"><title>344e7e0 · 2026-08-02 · +31k lines · Ship production updates</title></circle>
    <circle cx="1064.16" cy="301.72" r="2.8" fill="#0f766e"><title>42b2d62 · 2026-08-02 · +57 lines · Ship production updates</title></circle>
    <circle cx="1069.41" cy="301.98" r="2.8" fill="#0f766e"><title>4814b0c · 2026-08-02 · +5 lines · fix: cap marketing header links</title></circle>
    <circle cx="1074.67" cy="301.65" r="2.8" fill="#0f766e"><title>4ff3707 · 2026-08-02 · +71 lines · Ship production updates</title></circle>
    <circle cx="1079.92" cy="301.98" r="2.8" fill="#0f766e"><title>9850fd7 · 2026-08-02 · +4 lines · style: compact dashboard shell</title></circle>
    <circle cx="1085.18" cy="301.96" r="2.8" fill="#0f766e"><title>e35ed97 · 2026-08-02 · +9 lines · style: compact dashboard navigation</title></circle>
    <circle cx="1090.43" cy="301.94" r="2.8" fill="#0f766e"><title>a4d4da9 · 2026-08-02 · +13 lines · fix: avoid empty sidebar accordions</title></circle>
    <circle cx="1095.69" cy="302.00" r="2.8" fill="#0f766e"><title>3c9d5e2 · 2026-08-02 · +1 lines · style: align sidebar disclosure action</title></circle>
    <circle cx="1100.94" cy="302.00" r="2.8" fill="#0f766e"><title>80f7310 · 2026-08-02 · +1 lines · fix: constrain collapsed sidebar track</title></circle>
    <circle cx="1106.20" cy="301.98" r="2.8" fill="#0f766e"><title>cf20f08 · 2026-08-02 · +5 lines · fix: scale compact organization avatar</title></circle>
    <circle cx="1111.45" cy="301.99" r="2.8" fill="#0f766e"><title>f66c88b · 2026-08-02 · +3 lines · style: refine compact organization avatar</title></circle>
    <circle cx="1116.71" cy="301.98" r="2.8" fill="#0f766e"><title>7385a5a · 2026-08-02 · +4 lines · fix: align compact avatar with nav rows</title></circle>
    <circle cx="1121.96" cy="302.00" r="2.8" fill="#64748b"><title>a687886 · 2026-08-02 · 0 lines · style: cap compact organization avatar</title></circle>
    <circle cx="1127.22" cy="302.00" r="2.8" fill="#0f766e"><title>64b5aa3 · 2026-08-02 · +1 lines · fix: show logo in open compact sidebar</title></circle>
    <circle cx="1132.47" cy="301.99" r="2.8" fill="#0f766e"><title>cfd4d13 · 2026-08-02 · +2 lines · fix: restore assistant composer surface</title></circle>
    <circle cx="1137.73" cy="300.45" r="2.8" fill="#0f766e"><title>698016c · 2026-08-02 · +314 lines · Ship production updates</title></circle>
    <circle cx="1142.98" cy="281.79" r="2.8" fill="#0f766e"><title>67e4031 · 2026-08-02 · +4.1k lines · feat: bundle Averlo Codex plugin</title></circle>
    <circle cx="1148.24" cy="301.80" r="2.8" fill="#0f766e"><title>d3bc7eb · 2026-08-02 · +41 lines · fix: clear plugin and build warnings</title></circle>
    <circle cx="1153.49" cy="296.25" r="2.8" fill="#0f766e"><title>9cc78bb · 2026-08-02 · +1.2k lines · Ship production updates</title></circle>
    <circle cx="1158.75" cy="301.95" r="2.8" fill="#0f766e"><title>308df3a · 2026-08-02 · +11 lines · Ship production updates</title></circle>
    <circle cx="1164.00" cy="305.01" r="2.8" fill="#be123c"><title>6a3ebd6 · 2026-08-06 · -609 lines · Ship production updates</title></circle>
  </g>
  <g class="axis-label">
    <text x="92.00" y="532" text-anchor="start">2025-08-24</text>
    <text x="628.00" y="532" text-anchor="middle">2026-07-19</text>
    <text x="1164.00" y="532" text-anchor="end">2026-08-06</text>
    <text x="1164" y="68" text-anchor="end">Chronological commits →</text>
  </g>
</svg>
