<!-- Generated by scripts/generate-commit-line-delta.mjs. Do not edit directly. -->
<svg xmlns="http://www.w3.org/2000/svg" width="1200" height="560" viewBox="0 0 1200 560" role="img" aria-labelledby="title description">
  <title id="title">Net line delta by commit</title>
  <desc id="description">A chronological line chart showing additions minus deletions for 184 commits. Each point represents one commit.</desc>
  <style>
    .heading { fill: #0f172a; font-family: sans-serif; font-size: 24px; font-weight: 700; }
    .subheading { fill: #475569; font-family: sans-serif; font-size: 14px; }
    .axis-label { fill: #64748b; font-family: sans-serif; font-size: 12px; }
  </style>
  <rect width="1200" height="560" rx="14" fill="#ffffff" />
  <rect x="0.5" y="0.5" width="1199" height="559" rx="13.5" fill="none" stroke="#dbe4ee" />
  <text x="92" y="42" class="heading">Net line delta by commit</text>
  <text x="92" y="68" class="subheading">Additions minus deletions · 184 commits · hover a point for commit details</text>
  <g>
    <line x1="92" x2="1164" y1="104.00" y2="104.00" stroke="#dbe4ee" stroke-width="1" /><text x="78" y="108.00" text-anchor="end" class="axis-label">+40k</text>
    <line x1="92" x2="1164" y1="203.00" y2="203.00" stroke="#dbe4ee" stroke-width="1" /><text x="78" y="207.00" text-anchor="end" class="axis-label">+20k</text>
    <line x1="92" x2="1164" y1="302.00" y2="302.00" stroke="#64748b" stroke-width="1.5" /><text x="78" y="306.00" text-anchor="end" class="axis-label">0</text>
    <line x1="92" x2="1164" y1="401.00" y2="401.00" stroke="#dbe4ee" stroke-width="1" /><text x="78" y="405.00" text-anchor="end" class="axis-label">-20k</text>
    <line x1="92" x2="1164" y1="500.00" y2="500.00" stroke="#dbe4ee" stroke-width="1" /><text x="78" y="504.00" text-anchor="end" class="axis-label">-40k</text>
  </g>
  <polyline points="92.00,290.89 97.86,299.04 103.72,301.89 109.57,301.93 115.43,301.98 121.29,301.90 127.15,298.38 133.01,301.97 138.86,274.13 144.72,301.55 150.58,297.78 156.44,301.99 162.30,302.00 168.15,302.06 174.01,301.99 179.87,302.00 185.73,301.41 191.58,302.00 197.44,301.26 203.30,273.66 209.16,302.00 215.02,275.24 220.87,301.90 226.73,301.81 232.59,297.31 238.45,295.67 244.31,299.99 250.16,289.37 256.02,297.64 261.88,299.93 267.74,299.12 273.60,282.37 279.45,263.48 285.31,301.98 291.17,301.25 297.03,301.75 302.89,302.00 308.74,299.26 314.60,301.99 320.46,299.05 326.32,301.89 332.17,302.00 338.03,305.13 343.89,300.75 349.75,300.20 355.61,301.31 361.46,295.72 367.32,293.73 373.18,276.64 379.04,301.78 384.90,406.63 390.75,197.37 396.61,286.10 402.47,301.70 408.33,299.59 414.19,423.68 420.04,298.93 425.90,301.98 431.76,175.07 437.62,301.96 443.48,301.53 449.33,301.33 455.19,295.85 461.05,301.96 466.91,301.23 472.77,299.04 478.62,292.25 484.48,303.31 490.34,300.56 496.20,301.88 502.05,301.97 507.91,299.01 513.77,301.95 519.63,301.99 525.49,301.23 531.34,300.19 537.20,301.27 543.06,302.65 548.92,301.91 554.78,301.69 560.63,301.58 566.49,297.03 572.35,301.83 578.21,301.92 584.07,301.94 589.92,301.89 595.78,301.90 601.64,301.86 607.50,301.92 613.36,301.93 619.21,301.96 625.07,301.98 630.93,301.94 636.79,301.99 642.64,302.00 648.50,301.99 654.36,301.87 660.22,301.95 666.08,301.03 671.93,302.00 677.79,301.73 683.65,301.96 689.51,301.91 695.37,301.97 701.22,301.99 707.08,301.97 712.94,301.98 718.80,301.79 724.66,302.00 730.51,300.69 736.37,301.49 742.23,272.83 748.09,291.14 753.95,298.32 759.80,281.45 765.66,301.86 771.52,301.85 777.38,301.74 783.23,301.96 789.09,302.00 794.95,301.94 800.81,299.08 806.67,301.56 812.52,244.80 818.38,302.00 824.24,296.93 830.10,302.00 835.96,301.99 841.81,301.81 847.67,298.52 853.53,302.09 859.39,301.99 865.25,293.88 871.10,298.22 876.96,303.52 882.82,302.00 888.68,302.00 894.54,302.00 900.39,301.99 906.25,302.11 912.11,301.92 917.97,301.84 923.83,302.00 929.68,301.98 935.54,299.44 941.40,300.96 947.26,297.49 953.11,305.03 958.97,300.50 964.83,295.77 970.69,300.83 976.55,302.54 982.40,301.52 988.26,301.95 994.12,301.60 999.98,301.88 1005.84,301.99 1011.69,302.52 1017.55,301.76 1023.41,301.24 1029.27,302.00 1035.13,301.99 1040.98,302.06 1046.84,302.00 1052.70,301.98 1058.56,302.18 1064.42,301.46 1070.27,303.24 1076.13,299.91 1081.99,300.99 1087.85,304.39 1093.70,310.09 1099.56,302.52 1105.42,301.53 1111.28,301.79 1117.14,301.88 1122.99,302.00 1128.85,313.77 1134.71,299.46 1140.57,304.49 1146.43,287.97 1152.28,302.27 1158.14,288.11 1164.00,301.60" fill="none" stroke="#4f46e5" stroke-width="2.5" stroke-linecap="round" stroke-linejoin="round" />
  <g>
    <circle cx="92.00" cy="290.89" r="2.8" fill="#0f766e"><title>96e29b8 · 2025-08-24 · +2.2k lines · Initial commit from Create Next App</title></circle>
    <circle cx="97.86" cy="299.04" r="2.8" fill="#0f766e"><title>fda3af8 · 2025-08-25 · +598 lines · template complete</title></circle>
    <circle cx="103.72" cy="301.89" r="2.8" fill="#0f766e"><title>6d98fa3 · 2025-08-25 · +22 lines · version pinning post script</title></circle>
    <circle cx="109.57" cy="301.93" r="2.8" fill="#0f766e"><title>0a9b4e0 · 2025-08-26 · +15 lines · small updates</title></circle>
    <circle cx="115.43" cy="301.98" r="2.8" fill="#0f766e"><title>e0cb2f1 · 2025-08-26 · +4 lines · keywords config</title></circle>
    <circle cx="121.29" cy="301.90" r="2.8" fill="#0f766e"><title>d89a1d6 · 2025-09-23 · +20 lines · vh-max</title></circle>
    <circle cx="127.15" cy="298.38" r="2.8" fill="#0f766e"><title>f6bf1a3 · 2025-10-28 · +731 lines · toast + error + tailwind breakpoint hook</title></circle>
    <circle cx="133.01" cy="301.97" r="2.8" fill="#0f766e"><title>31b4033 · 2025-12-02 · +7 lines · portal id feature, nav config simplfied + next16.06</title></circle>
    <circle cx="138.86" cy="274.13" r="2.8" fill="#0f766e"><title>c6d6871 · 2025-12-26 · +5.6k lines · new ui component strategy</title></circle>
    <circle cx="144.72" cy="301.55" r="2.8" fill="#0f766e"><title>f65ef72 · 2025-12-27 · +90 lines · coverting rest to new system</title></circle>
    <circle cx="150.58" cy="297.78" r="2.8" fill="#0f766e"><title>4558e58 · 2025-12-27 · +852 lines · Icon, Layout components, motion components</title></circle>
    <circle cx="156.44" cy="301.99" r="2.8" fill="#0f766e"><title>a63133a · 2025-12-27 · +2 lines · More heading sizes</title></circle>
    <circle cx="162.30" cy="302.00" r="2.8" fill="#0f766e"><title>1fd668b · 2025-12-27 · +1 lines · Small heading correction</title></circle>
    <circle cx="168.15" cy="302.06" r="2.8" fill="#be123c"><title>ac3c039 · 2025-12-28 · -12 lines · site map config</title></circle>
    <circle cx="174.01" cy="301.99" r="2.8" fill="#0f766e"><title>de4635f · 2025-12-28 · +2 lines · crash and not found with section</title></circle>
    <circle cx="179.87" cy="302.00" r="2.8" fill="#be123c"><title>719c6bc · 2026-01-01 · -1 lines · small edits</title></circle>
    <circle cx="185.73" cy="301.41" r="2.8" fill="#0f766e"><title>d724780 · 2026-01-07 · +120 lines · layout fixes</title></circle>
    <circle cx="191.58" cy="302.00" r="2.8" fill="#64748b"><title>c9c48f8 · 2026-01-10 · 0 lines · small fix</title></circle>
    <circle cx="197.44" cy="301.26" r="2.8" fill="#0f766e"><title>12af7b1 · 2026-01-11 · +150 lines · small updates</title></circle>
    <circle cx="203.30" cy="273.66" r="2.8" fill="#0f766e"><title>71cf5f4 · 2026-02-18 · +5.7k lines · Best from 8-ball project</title></circle>
    <circle cx="209.16" cy="302.00" r="2.8" fill="#be123c"><title>b898054 · 2026-02-18 · -1 lines · a</title></circle>
    <circle cx="215.02" cy="275.24" r="2.8" fill="#0f766e"><title>9e6aed3 · 2026-03-13 · +5.4k lines · Best from Argos</title></circle>
    <circle cx="220.87" cy="301.90" r="2.8" fill="#0f766e"><title>43d28e6 · 2026-03-13 · +21 lines · Read me updates</title></circle>
    <circle cx="226.73" cy="301.81" r="2.8" fill="#0f766e"><title>160f187 · 2026-03-14 · +39 lines · Small changes</title></circle>
    <circle cx="232.59" cy="297.31" r="2.8" fill="#0f766e"><title>e53e12a · 2026-03-18 · +948 lines · UPgrades from madad</title></circle>
    <circle cx="238.45" cy="295.67" r="2.8" fill="#0f766e"><title>83c8415 · 2026-03-30 · +1.3k lines · Additional Madad updates</title></circle>
    <circle cx="244.31" cy="299.99" r="2.8" fill="#0f766e"><title>6c69df2 · 2026-04-16 · +406 lines · Tazweed updates</title></circle>
    <circle cx="250.16" cy="289.37" r="2.8" fill="#0f766e"><title>6a7b5c8 · 2026-04-19 · +2.6k lines · Dashboard + Dictionary</title></circle>
    <circle cx="256.02" cy="297.64" r="2.8" fill="#0f766e"><title>e166c72 · 2026-04-19 · +881 lines · Small fixes</title></circle>
    <circle cx="261.88" cy="299.93" r="2.8" fill="#0f766e"><title>65ada20 · 2026-04-23 · +419 lines · Dashboard polish</title></circle>
    <circle cx="267.74" cy="299.12" r="2.8" fill="#0f766e"><title>6877949 · 2026-04-28 · +581 lines · Partial from Zero Emisions Platform V2</title></circle>
    <circle cx="273.60" cy="282.37" r="2.8" fill="#0f766e"><title>4a15195 · 2026-05-03 · +4k lines · Zero emisions full port + workflow updates</title></circle>
    <circle cx="279.45" cy="263.48" r="2.8" fill="#0f766e"><title>ffc9603 · 2026-05-16 · +7.8k lines · Add Payload-ready marketing content scaffold</title></circle>
    <circle cx="285.31" cy="301.98" r="2.8" fill="#0f766e"><title>2b8b6af · 2026-05-16 · +5 lines · Ignore local worktree and dev outputs</title></circle>
    <circle cx="291.17" cy="301.25" r="2.8" fill="#0f766e"><title>0b8c873 · 2026-05-16 · +151 lines · chore: clean lint and dependency warnings</title></circle>
    <circle cx="297.03" cy="301.75" r="2.8" fill="#0f766e"><title>9ffc0ec · 2026-05-16 · +50 lines · chore: update dependency patch set</title></circle>
    <circle cx="302.89" cy="302.00" r="2.8" fill="#64748b"><title>97a6087 · 2026-05-16 · 0 lines · chore: verify TypeScript 6 compatibility</title></circle>
    <circle cx="308.74" cy="299.26" r="2.8" fill="#0f766e"><title>af34369 · 2026-05-16 · +554 lines · feat: finalize template worktree ports</title></circle>
    <circle cx="314.60" cy="301.99" r="2.8" fill="#0f766e"><title>b1e3dfe · 2026-05-16 · +3 lines · feat: add image switcher primitive</title></circle>
    <circle cx="320.46" cy="299.05" r="2.8" fill="#0f766e"><title>2b4569d · 2026-05-16 · +596 lines · Add reveal group item scheduler</title></circle>
    <circle cx="326.32" cy="301.89" r="2.8" fill="#0f766e"><title>fb3cc99 · 2026-05-16 · +23 lines · fix: stabilize image switcher preload keys</title></circle>
    <circle cx="332.17" cy="302.00" r="2.8" fill="#64748b"><title>76f8938 · 2026-05-17 · 0 lines · Move playground into marketing internal group</title></circle>
    <circle cx="338.03" cy="305.13" r="2.8" fill="#be123c"><title>0cc70ee · 2026-05-17 · -632 lines · Consolidate reveal image load strategy</title></circle>
    <circle cx="343.89" cy="300.75" r="2.8" fill="#0f766e"><title>877486d · 2026-05-18 · +253 lines · Local</title></circle>
    <circle cx="349.75" cy="300.20" r="2.8" fill="#0f766e"><title>b96eb59 · 2026-05-19 · +364 lines · Document responsive rendering breakpoint guidance</title></circle>
    <circle cx="355.61" cy="301.31" r="2.8" fill="#0f766e"><title>73f29d6 · 2026-05-23 · +140 lines · Checkpoint main interaction updates</title></circle>
    <circle cx="361.46" cy="295.72" r="2.8" fill="#0f766e"><title>302871e · 2026-05-23 · +1.3k lines · Ship production updates</title></circle>
    <circle cx="367.32" cy="293.73" r="2.8" fill="#0f766e"><title>1b71eb3 · 2026-05-23 · +1.7k lines · Add template intelligence surface</title></circle>
    <circle cx="373.18" cy="276.64" r="2.8" fill="#0f766e"><title>ce1467b · 2026-05-25 · +5.1k lines · Ship production updates</title></circle>
    <circle cx="379.04" cy="301.78" r="2.8" fill="#0f766e"><title>b569257 · 2026-05-25 · +44 lines · Allow template internal routes in production</title></circle>
    <circle cx="384.90" cy="406.63" r="2.8" fill="#be123c"><title>76d6314 · 2026-06-09 · -21k lines · Add optional thin-start activation path</title></circle>
    <circle cx="390.75" cy="197.37" r="2.8" fill="#0f766e"><title>84cd3c6 · 2026-06-09 · +21k lines · Revert &quot;Add optional thin-start activation path&quot;</title></circle>
    <circle cx="396.61" cy="286.10" r="2.8" fill="#0f766e"><title>19f465b · 2026-06-09 · +3.2k lines · Add optional thin-start activation tooling</title></circle>
    <circle cx="402.47" cy="301.70" r="2.8" fill="#0f766e"><title>36d0239 · 2026-06-09 · +60 lines · Document thin-start instance activation path</title></circle>
    <circle cx="408.33" cy="299.59" r="2.8" fill="#0f766e"><title>7235466 · 2026-06-09 · +487 lines · Harden lightweight prune reset path</title></circle>
    <circle cx="414.19" cy="423.68" r="2.8" fill="#be123c"><title>c7397aa · 2026-06-09 · -25k lines · Ship production updates</title></circle>
    <circle cx="420.04" cy="298.93" r="2.8" fill="#0f766e"><title>4ef60ee · 2026-06-29 · +621 lines · chore: publish Averlo Next Template</title></circle>
    <circle cx="425.90" cy="301.98" r="2.8" fill="#0f766e"><title>76e04f3 · 2026-06-29 · +5 lines · docs: finalize Averlo README</title></circle>
    <circle cx="431.76" cy="175.07" r="2.8" fill="#0f766e"><title>948efcd · 2026-07-03 · +26k lines · Restore full template surface after accidental prune</title></circle>
    <circle cx="437.62" cy="301.96" r="2.8" fill="#0f766e"><title>18baf59 · 2026-07-03 · +9 lines · Refresh backport ledger after template recovery</title></circle>
    <circle cx="443.48" cy="301.53" r="2.8" fill="#0f766e"><title>876b9b9 · 2026-07-03 · +95 lines · Backport modal focus management</title></circle>
    <circle cx="449.33" cy="301.33" r="2.8" fill="#0f766e"><title>24ee03b · 2026-07-03 · +135 lines · Backport generic metadata helper</title></circle>
    <circle cx="455.19" cy="295.85" r="2.8" fill="#0f766e"><title>80d4d72 · 2026-07-04 · +1.2k lines · Backport markdown renderer</title></circle>
    <circle cx="461.05" cy="301.96" r="2.8" fill="#0f766e"><title>7e859b8 · 2026-07-04 · +9 lines · Reuse choice indicator in markdown tasks</title></circle>
    <circle cx="466.91" cy="301.23" r="2.8" fill="#0f766e"><title>9302a7e · 2026-07-04 · +156 lines · Move markdown renderer to composites</title></circle>
    <circle cx="472.77" cy="299.04" r="2.8" fill="#0f766e"><title>3ac8890 · 2026-07-04 · +597 lines · Include choice inputs in thin start</title></circle>
    <circle cx="478.62" cy="292.25" r="2.8" fill="#0f766e"><title>442a4ad · 2026-07-04 · +2k lines · Backport scroll performance tooling</title></circle>
    <circle cx="484.48" cy="303.31" r="2.8" fill="#be123c"><title>5f0a8ac · 2026-07-04 · -265 lines · Rebuild scroll performance tooling around page targets</title></circle>
    <circle cx="490.34" cy="300.56" r="2.8" fill="#0f766e"><title>9a50fe8 · 2026-07-04 · +291 lines · Add normalized scroll performance scoring gates</title></circle>
    <circle cx="496.20" cy="301.88" r="2.8" fill="#0f766e"><title>cfb763f · 2026-07-04 · +25 lines · Document scroll performance autoresearch harness</title></circle>
    <circle cx="502.05" cy="301.97" r="2.8" fill="#0f766e"><title>94ed9a8 · 2026-07-04 · +7 lines · Generalize fallback marketing page map</title></circle>
    <circle cx="507.91" cy="299.01" r="2.8" fill="#0f766e"><title>2416a89 · 2026-07-04 · +604 lines · Make Serena warm optional</title></circle>
    <circle cx="513.77" cy="301.95" r="2.8" fill="#0f766e"><title>149a3cd · 2026-07-04 · +10 lines · Document warm optional agent harnesses</title></circle>
    <circle cx="519.63" cy="301.99" r="2.8" fill="#0f766e"><title>2cb3408 · 2026-07-04 · +2 lines · Link scroll autoresearch harness</title></circle>
    <circle cx="525.49" cy="301.23" r="2.8" fill="#0f766e"><title>a19ed47 · 2026-07-05 · +156 lines · Add repo intelligence benchmark pilot</title></circle>
    <circle cx="531.34" cy="300.19" r="2.8" fill="#0f766e"><title>6bf5bfe · 2026-07-06 · +366 lines · Ship template orchestration and review workflow updates</title></circle>
    <circle cx="537.20" cy="301.27" r="2.8" fill="#0f766e"><title>06f0121 · 2026-07-06 · +148 lines · Port generic layer flood loading mount</title></circle>
    <circle cx="543.06" cy="302.65" r="2.8" fill="#be123c"><title>774b513 · 2026-07-07 · -132 lines · Keep loading skip override only</title></circle>
    <circle cx="548.92" cy="301.91" r="2.8" fill="#0f766e"><title>840c057 · 2026-07-07 · +19 lines · Prevent loading skip flicker</title></circle>
    <circle cx="554.78" cy="301.69" r="2.8" fill="#0f766e"><title>d6c7083 · 2026-07-07 · +63 lines · Backport reveal automation overrides</title></circle>
    <circle cx="560.63" cy="301.58" r="2.8" fill="#0f766e"><title>74864db · 2026-07-07 · +85 lines · Refactor reveal scheduler internals</title></circle>
    <circle cx="566.49" cy="297.03" r="2.8" fill="#0f766e"><title>59c1b27 · 2026-07-07 · +1k lines · Backport reusable motion and UI references</title></circle>
    <circle cx="572.35" cy="301.83" r="2.8" fill="#0f766e"><title>8654222 · 2026-07-18 · +35 lines · Stage template profile architecture decisions</title></circle>
    <circle cx="578.21" cy="301.92" r="2.8" fill="#0f766e"><title>9dbf009 · 2026-07-18 · +16 lines · Stage Panel and Card architecture</title></circle>
    <circle cx="584.07" cy="301.94" r="2.8" fill="#0f766e"><title>7496b4d · 2026-07-18 · +13 lines · Stage parallel template profile architecture</title></circle>
    <circle cx="589.92" cy="301.89" r="2.8" fill="#0f766e"><title>138fc9a · 2026-07-18 · +23 lines · Stage dashboard foundation architecture</title></circle>
    <circle cx="595.78" cy="301.90" r="2.8" fill="#0f766e"><title>7c5dd72 · 2026-07-18 · +21 lines · Stage organization-first dashboard routes</title></circle>
    <circle cx="601.64" cy="301.86" r="2.8" fill="#0f766e"><title>2987908 · 2026-07-18 · +28 lines · Stage organization context architecture</title></circle>
    <circle cx="607.50" cy="301.92" r="2.8" fill="#0f766e"><title>35e8a85 · 2026-07-18 · +16 lines · Stage organization selection and record interactions</title></circle>
    <circle cx="613.36" cy="301.93" r="2.8" fill="#0f766e"><title>381da0b · 2026-07-18 · +15 lines · Stage organization selection and settings architecture</title></circle>
    <circle cx="619.21" cy="301.96" r="2.8" fill="#0f766e"><title>f751989 · 2026-07-18 · +9 lines · Stage template instance activation boundary</title></circle>
    <circle cx="625.07" cy="301.98" r="2.8" fill="#0f766e"><title>b96a62f · 2026-07-18 · +5 lines · Stage final architecture disposition</title></circle>
    <circle cx="630.93" cy="301.94" r="2.8" fill="#0f766e"><title>601cf77 · 2026-07-18 · +13 lines · Stage template visual system parity</title></circle>
    <circle cx="636.79" cy="301.99" r="2.8" fill="#0f766e"><title>4f0a56a · 2026-07-18 · +2 lines · Stage architecture consolidation safeguards</title></circle>
    <circle cx="642.64" cy="302.00" r="2.8" fill="#0f766e"><title>609bbad · 2026-07-19 · +1 lines · Pin Inference Console visual baseline</title></circle>
    <circle cx="648.50" cy="301.99" r="2.8" fill="#0f766e"><title>0f15cbd · 2026-07-19 · +3 lines · Stage final architecture structure</title></circle>
    <circle cx="654.36" cy="301.87" r="2.8" fill="#0f766e"><title>b107890 · 2026-07-19 · +27 lines · Stage additional component convergence</title></circle>
    <circle cx="660.22" cy="301.95" r="2.8" fill="#0f766e"><title>8475bf8 · 2026-07-19 · +10 lines · Stage component dependency and parity boundaries</title></circle>
    <circle cx="666.08" cy="301.03" r="2.8" fill="#0f766e"><title>ff2c9de · 2026-07-19 · +196 lines · Consolidate template architecture</title></circle>
    <circle cx="671.93" cy="302.00" r="2.8" fill="#0f766e"><title>90fd623 · 2026-07-19 · +1 lines · Complete architecture parity review</title></circle>
    <circle cx="677.79" cy="301.73" r="2.8" fill="#0f766e"><title>58256ab · 2026-07-19 · +55 lines · Extend dashboard entity architecture</title></circle>
    <circle cx="683.65" cy="301.96" r="2.8" fill="#0f766e"><title>3ee4d97 · 2026-07-19 · +8 lines · Refine dashboard presentation boundaries</title></circle>
    <circle cx="689.51" cy="301.91" r="2.8" fill="#0f766e"><title>7469a0a · 2026-07-19 · +19 lines · Stage authentication lifecycle architecture</title></circle>
    <circle cx="695.37" cy="301.97" r="2.8" fill="#0f766e"><title>9b66eee · 2026-07-19 · +7 lines · Stage dashboard component state contracts</title></circle>
    <circle cx="701.22" cy="301.99" r="2.8" fill="#0f766e"><title>efdde78 · 2026-07-19 · +2 lines · Stage selective component boundaries</title></circle>
    <circle cx="707.08" cy="301.97" r="2.8" fill="#0f766e"><title>eda5e92 · 2026-07-19 · +7 lines · Stage command and input convergence</title></circle>
    <circle cx="712.94" cy="301.98" r="2.8" fill="#0f766e"><title>63c133a · 2026-07-19 · +5 lines · Stage remaining reusable surface contracts</title></circle>
    <circle cx="718.80" cy="301.79" r="2.8" fill="#0f766e"><title>feb352b · 2026-07-19 · +43 lines · Consolidate source rescan architecture</title></circle>
    <circle cx="724.66" cy="302.00" r="2.8" fill="#64748b"><title>8dcc3f2 · 2026-07-19 · 0 lines · Review consolidated architecture contracts</title></circle>
    <circle cx="730.51" cy="300.69" r="2.8" fill="#0f766e"><title>5061682 · 2026-07-19 · +265 lines · Refine thin-start and shared Card surfaces</title></circle>
    <circle cx="736.37" cy="301.49" r="2.8" fill="#0f766e"><title>6cb2c99 · 2026-07-19 · +103 lines · Initialize filesystem-backed inference port</title></circle>
    <circle cx="742.23" cy="272.83" r="2.8" fill="#0f766e"><title>5d79e06 · 2026-07-19 · +5.9k lines · Port shared inference visual system</title></circle>
    <circle cx="748.09" cy="291.14" r="2.8" fill="#0f766e"><title>66a08e1 · 2026-07-19 · +2.2k lines · Add provider-neutral auth and organizations</title></circle>
    <circle cx="753.95" cy="298.32" r="2.8" fill="#0f766e"><title>8140fc3 · 2026-07-20 · +744 lines · Build registry-driven dashboard shell</title></circle>
    <circle cx="759.80" cy="281.45" r="2.8" fill="#0f766e"><title>f88f569 · 2026-07-20 · +4.2k lines · Complete dashboard reference entity port</title></circle>
    <circle cx="765.66" cy="301.86" r="2.8" fill="#0f766e"><title>d5cd83f · 2026-07-20 · +29 lines · Match Card defaults to pinned source</title></circle>
    <circle cx="771.52" cy="301.85" r="2.8" fill="#0f766e"><title>0faa24a · 2026-07-20 · +31 lines · Make labeled dividers surface neutral</title></circle>
    <circle cx="777.38" cy="301.74" r="2.8" fill="#0f766e"><title>a2da053 · 2026-07-20 · +53 lines · Stage async mutation policy port</title></circle>
    <circle cx="783.23" cy="301.96" r="2.8" fill="#0f766e"><title>3c046bb · 2026-07-20 · +9 lines · Consolidate async mutation architecture</title></circle>
    <circle cx="789.09" cy="302.00" r="2.8" fill="#64748b"><title>c3f7e4d · 2026-07-20 · 0 lines · Review mutation architecture consolidation</title></circle>
    <circle cx="794.95" cy="301.94" r="2.8" fill="#0f766e"><title>b0c0505 · 2026-07-20 · +12 lines · Match InputFrame defaults to pinned source</title></circle>
    <circle cx="800.81" cy="299.08" r="2.8" fill="#0f766e"><title>415a11d · 2026-07-20 · +590 lines · Standardize modal mutation handoffs</title></circle>
    <circle cx="806.67" cy="301.56" r="2.8" fill="#0f766e"><title>b6855b8 · 2026-07-20 · +89 lines · Reorganize Button hierarchy and danger tone</title></circle>
    <circle cx="812.52" cy="244.80" r="2.8" fill="#0f766e"><title>7942996 · 2026-07-23 · +12k lines · Checkpoint accumulated port review work</title></circle>
    <circle cx="818.38" cy="302.00" r="2.8" fill="#64748b"><title>b5e0fc6 · 2026-07-23 · 0 lines · Integrate mutation policy with polished port</title></circle>
    <circle cx="824.24" cy="296.93" r="2.8" fill="#0f766e"><title>f8aa224 · 2026-07-23 · +1k lines · Harden dependencies and close out inference port</title></circle>
    <circle cx="830.10" cy="302.00" r="2.8" fill="#64748b"><title>ec620dc · 2026-07-23 · 0 lines · Keep dependency pinning idempotent</title></circle>
    <circle cx="835.96" cy="301.99" r="2.8" fill="#0f766e"><title>8f9e913 · 2026-07-23 · +3 lines · Finalize inference port handoff</title></circle>
    <circle cx="841.81" cy="301.81" r="2.8" fill="#0f766e"><title>c705d0c · 2026-07-23 · +39 lines · Stage benchmark evidence recording policy</title></circle>
    <circle cx="847.67" cy="298.52" r="2.8" fill="#0f766e"><title>71ae98c · 2026-07-23 · +704 lines · Make intelligence benchmarks evidence driven</title></circle>
    <circle cx="853.53" cy="302.09" r="2.8" fill="#be123c"><title>01a4f1e · 2026-07-23 · -18 lines · Narrow intelligence architecture to cleanup</title></circle>
    <circle cx="859.39" cy="301.99" r="2.8" fill="#0f766e"><title>5cc2c7d · 2026-07-23 · +3 lines · Clarify benchmark cleanup disposition</title></circle>
    <circle cx="865.25" cy="293.88" r="2.8" fill="#0f766e"><title>1d4a3c4 · 2026-07-23 · +1.6k lines · Add prune-aware dashboard intelligence</title></circle>
    <circle cx="871.10" cy="298.22" r="2.8" fill="#0f766e"><title>c2bd239 · 2026-07-23 · +764 lines · Integrate service assembly into homepage hero</title></circle>
    <circle cx="876.96" cy="303.52" r="2.8" fill="#be123c"><title>867bf1a · 2026-07-23 · -308 lines · Reorganize frontend ownership surfaces</title></circle>
    <circle cx="882.82" cy="302.00" r="2.8" fill="#64748b"><title>581e7e7 · 2026-07-23 · 0 lines · Integrate template intelligence updates</title></circle>
    <circle cx="888.68" cy="302.00" r="2.8" fill="#64748b"><title>ef95119 · 2026-07-23 · 0 lines · Integrate homepage service assembly</title></circle>
    <circle cx="894.54" cy="302.00" r="2.8" fill="#64748b"><title>5cdcde7 · 2026-07-23 · 0 lines · Integrate frontend ownership cleanup</title></circle>
    <circle cx="900.39" cy="301.99" r="2.8" fill="#0f766e"><title>8ff7fe1 · 2026-07-23 · +2 lines · Align thin profile integration contracts</title></circle>
    <circle cx="906.25" cy="302.11" r="2.8" fill="#be123c"><title>5b31bc3 · 2026-07-23 · -23 lines · Make home hero callouts hover only</title></circle>
    <circle cx="912.11" cy="301.92" r="2.8" fill="#0f766e"><title>7c49f3b · 2026-07-23 · +17 lines · Restore home hero callout layout motion</title></circle>
    <circle cx="917.97" cy="301.84" r="2.8" fill="#0f766e"><title>a571de5 · 2026-07-23 · +32 lines · Show dashboard redirect state reliably</title></circle>
    <circle cx="923.83" cy="302.00" r="2.8" fill="#64748b"><title>94ca212 · 2026-07-23 · 0 lines · Center dashboard status frames</title></circle>
    <circle cx="929.68" cy="301.98" r="2.8" fill="#0f766e"><title>d9d3354 · 2026-07-23 · +5 lines · Canonicalize dashboard overview route</title></circle>
    <circle cx="935.54" cy="299.44" r="2.8" fill="#0f766e"><title>732b630 · 2026-07-24 · +518 lines · Standardize dashboard page surface ownership</title></circle>
    <circle cx="941.40" cy="300.96" r="2.8" fill="#0f766e"><title>95ae3ad · 2026-07-24 · +211 lines · Split internal demo catalogue by page family</title></circle>
    <circle cx="947.26" cy="297.49" r="2.8" fill="#0f766e"><title>de19f91 · 2026-07-25 · +911 lines · Add skeleton overlap geometry pilot</title></circle>
    <circle cx="953.11" cy="305.03" r="2.8" fill="#be123c"><title>37cee75 · 2026-07-25 · -613 lines · Ship production updates</title></circle>
    <circle cx="958.97" cy="300.50" r="2.8" fill="#0f766e"><title>96248e8 · 2026-07-26 · +304 lines · feat: add template profile materialization</title></circle>
    <circle cx="964.83" cy="295.77" r="2.8" fill="#0f766e"><title>0bf79f4 · 2026-07-26 · +1.3k lines · feat: add positive template assembly engine</title></circle>
    <circle cx="970.69" cy="300.83" r="2.8" fill="#0f766e"><title>3578e63 · 2026-07-26 · +236 lines · Ship production updates</title></circle>
    <circle cx="976.55" cy="302.54" r="2.8" fill="#be123c"><title>876b384 · 2026-07-26 · -109 lines · Ship production updates</title></circle>
    <circle cx="982.40" cy="301.52" r="2.8" fill="#0f766e"><title>c7b96f8 · 2026-07-26 · +97 lines · Persist fixture sessions across redirects</title></circle>
    <circle cx="988.26" cy="301.95" r="2.8" fill="#0f766e"><title>c403398 · 2026-07-26 · +11 lines · fix: separate compact header menu gutters</title></circle>
    <circle cx="994.12" cy="301.60" r="2.8" fill="#0f766e"><title>231f622 · 2026-07-26 · +81 lines · chore: add compact header architecture demo</title></circle>
    <circle cx="999.98" cy="301.88" r="2.8" fill="#0f766e"><title>d28af2d · 2026-07-26 · +25 lines · chore: extend header architecture demo to desktop</title></circle>
    <circle cx="1005.84" cy="301.99" r="2.8" fill="#0f766e"><title>fb3a789 · 2026-07-26 · +3 lines · fix: decentralize desktop header gutters</title></circle>
    <circle cx="1011.69" cy="302.52" r="2.8" fill="#be123c"><title>1120941 · 2026-07-26 · -105 lines · Ship production updates</title></circle>
    <circle cx="1017.55" cy="301.76" r="2.8" fill="#0f766e"><title>3b74ada · 2026-07-28 · +48 lines · Ship production updates</title></circle>
    <circle cx="1023.41" cy="301.24" r="2.8" fill="#0f766e"><title>edd255a · 2026-07-29 · +154 lines · Ship production updates</title></circle>
    <circle cx="1029.27" cy="302.00" r="2.8" fill="#64748b"><title>d151160 · 2026-07-29 · 0 lines · feat: route marketing CTAs to dashboard login</title></circle>
    <circle cx="1035.13" cy="301.99" r="2.8" fill="#0f766e"><title>3c96130 · 2026-07-29 · +3 lines · fix: align account identity spacing</title></circle>
    <circle cx="1040.98" cy="302.06" r="2.8" fill="#be123c"><title>bfe407a · 2026-07-29 · -12 lines · refactor: compose settings account identity</title></circle>
    <circle cx="1046.84" cy="302.00" r="2.8" fill="#64748b"><title>ce958b1 · 2026-07-29 · 0 lines · fix: align organization identity spacing</title></circle>
    <circle cx="1052.70" cy="301.98" r="2.8" fill="#0f766e"><title>716eaad · 2026-07-29 · +4 lines · fix: unify identity presentation spacing</title></circle>
    <circle cx="1058.56" cy="302.18" r="2.8" fill="#be123c"><title>15e062b · 2026-07-29 · -36 lines · fix: unify entity identity presentation</title></circle>
    <circle cx="1064.42" cy="301.46" r="2.8" fill="#0f766e"><title>a6ceefa · 2026-07-29 · +109 lines · refactor: centralize entity identity layout</title></circle>
    <circle cx="1070.27" cy="303.24" r="2.8" fill="#be123c"><title>5b5a3d7 · 2026-07-29 · -250 lines · refactor: improve code clarity and modularize dropdown</title></circle>
    <circle cx="1076.13" cy="299.91" r="2.8" fill="#0f766e"><title>146bfc2 · 2026-07-29 · +422 lines · refactor: decouple positive assembly from prune</title></circle>
    <circle cx="1081.99" cy="300.99" r="2.8" fill="#0f766e"><title>ab04dd1 · 2026-07-29 · +204 lines · feat: add positive template content selection</title></circle>
    <circle cx="1087.85" cy="304.39" r="2.8" fill="#be123c"><title>315a5a1 · 2026-07-29 · -483 lines · refactor: make positive assembly the only project creator</title></circle>
    <circle cx="1093.70" cy="310.09" r="2.8" fill="#be123c"><title>6f21c2f · 2026-07-29 · -1.6k lines · refactor: retire template prune compatibility</title></circle>
    <circle cx="1099.56" cy="302.52" r="2.8" fill="#be123c"><title>7dbf647 · 2026-07-29 · -106 lines · refactor: remove legacy prune terminology</title></circle>
    <circle cx="1105.42" cy="301.53" r="2.8" fill="#0f766e"><title>83612d2 · 2026-07-29 · +94 lines · refactor: modularize markdown editor internals</title></circle>
    <circle cx="1111.28" cy="301.79" r="2.8" fill="#0f766e"><title>abf60a3 · 2026-07-29 · +42 lines · refactor: namespace markdown composite exports</title></circle>
    <circle cx="1117.14" cy="301.88" r="2.8" fill="#0f766e"><title>722a81f · 2026-07-29 · +24 lines · docs: clarify component API ownership</title></circle>
    <circle cx="1122.99" cy="302.00" r="2.8" fill="#64748b"><title>839828e · 2026-07-29 · 0 lines · docs: name component API patterns semantically</title></circle>
    <circle cx="1128.85" cy="313.77" r="2.8" fill="#be123c"><title>7873a45 · 2026-07-29 · -2.4k lines · refactor: organize documentation by ownership</title></circle>
    <circle cx="1134.71" cy="299.46" r="2.8" fill="#0f766e"><title>e72d405 · 2026-07-29 · +513 lines · docs: organize component conventions by pattern</title></circle>
    <circle cx="1140.57" cy="304.49" r="2.8" fill="#be123c"><title>812190e · 2026-07-30 · -504 lines · Ship production updates</title></circle>
    <circle cx="1146.43" cy="287.97" r="2.8" fill="#0f766e"><title>666f822 · 2026-07-30 · +2.8k lines · Ship production updates</title></circle>
    <circle cx="1152.28" cy="302.27" r="2.8" fill="#be123c"><title>f1580f9 · 2026-07-30 · -54 lines · Ship production updates</title></circle>
    <circle cx="1158.14" cy="288.11" r="2.8" fill="#0f766e"><title>7f7f5de · 2026-07-30 · +2.8k lines · Ship production updates</title></circle>
    <circle cx="1164.00" cy="301.60" r="2.8" fill="#0f766e"><title>8aced5a · 2026-07-30 · +81 lines · Ship production updates</title></circle>
  </g>
  <g class="axis-label">
    <text x="92.00" y="532" text-anchor="start">2025-08-24</text>
    <text x="625.07" y="532" text-anchor="middle">2026-07-18</text>
    <text x="1164.00" y="532" text-anchor="end">2026-07-30</text>
    <text x="1164" y="68" text-anchor="end">Chronological commits →</text>
  </g>
</svg>
