<!-- Generated by scripts/generate-commit-line-delta.mjs. Do not edit directly. -->
<svg xmlns="http://www.w3.org/2000/svg" width="1200" height="560" viewBox="0 0 1200 560" role="img" aria-labelledby="title description">
  <title id="title">Net line delta by commit</title>
  <desc id="description">A chronological line chart showing additions minus deletions for 206 commits. Each point represents one commit.</desc>
  <style>
    .heading { fill: #0f172a; font-family: sans-serif; font-size: 24px; font-weight: 700; }
    .subheading { fill: #475569; font-family: sans-serif; font-size: 14px; }
    .axis-label { fill: #64748b; font-family: sans-serif; font-size: 12px; }
  </style>
  <rect width="1200" height="560" rx="14" fill="#ffffff" />
  <rect x="0.5" y="0.5" width="1199" height="559" rx="13.5" fill="none" stroke="#dbe4ee" />
  <text x="92" y="42" class="heading">Net line delta by commit</text>
  <text x="92" y="68" class="subheading">Additions minus deletions · 206 commits · hover a point for commit details</text>
  <g>
    <line x1="92" x2="1164" y1="104.00" y2="104.00" stroke="#dbe4ee" stroke-width="1" /><text x="78" y="108.00" text-anchor="end" class="axis-label">+40k</text>
    <line x1="92" x2="1164" y1="203.00" y2="203.00" stroke="#dbe4ee" stroke-width="1" /><text x="78" y="207.00" text-anchor="end" class="axis-label">+20k</text>
    <line x1="92" x2="1164" y1="302.00" y2="302.00" stroke="#64748b" stroke-width="1.5" /><text x="78" y="306.00" text-anchor="end" class="axis-label">0</text>
    <line x1="92" x2="1164" y1="401.00" y2="401.00" stroke="#dbe4ee" stroke-width="1" /><text x="78" y="405.00" text-anchor="end" class="axis-label">-20k</text>
    <line x1="92" x2="1164" y1="500.00" y2="500.00" stroke="#dbe4ee" stroke-width="1" /><text x="78" y="504.00" text-anchor="end" class="axis-label">-40k</text>
  </g>
  <polyline points="92.00,290.89 97.23,299.04 102.46,301.89 107.69,301.93 112.92,301.98 118.15,301.90 123.38,298.38 128.60,301.97 133.83,274.13 139.06,301.55 144.29,297.78 149.52,301.99 154.75,302.00 159.98,302.06 165.21,301.99 170.44,302.00 175.67,301.41 180.90,302.00 186.13,301.26 191.36,273.66 196.59,302.00 201.81,275.24 207.04,301.90 212.27,301.81 217.50,297.31 222.73,295.67 227.96,299.99 233.19,289.37 238.42,297.64 243.65,299.93 248.88,299.12 254.11,282.37 259.34,263.48 264.57,301.98 269.80,301.25 275.02,301.75 280.25,302.00 285.48,299.26 290.71,301.99 295.94,299.05 301.17,301.89 306.40,302.00 311.63,305.13 316.86,300.75 322.09,300.20 327.32,301.31 332.55,295.72 337.78,293.73 343.00,276.64 348.23,301.78 353.46,406.63 358.69,197.37 363.92,286.10 369.15,301.70 374.38,299.59 379.61,423.68 384.84,298.93 390.07,301.98 395.30,175.07 400.53,301.96 405.76,301.53 410.99,301.33 416.21,295.85 421.44,301.96 426.67,301.23 431.90,299.04 437.13,292.25 442.36,303.31 447.59,300.56 452.82,301.88 458.05,301.97 463.28,299.01 468.51,301.95 473.74,301.99 478.97,301.23 484.20,300.19 489.42,301.27 494.65,302.65 499.88,301.91 505.11,301.69 510.34,301.58 515.57,297.03 520.80,301.83 526.03,301.92 531.26,301.94 536.49,301.89 541.72,301.90 546.95,301.86 552.18,301.92 557.40,301.93 562.63,301.96 567.86,301.98 573.09,301.94 578.32,301.99 583.55,302.00 588.78,301.99 594.01,301.87 599.24,301.95 604.47,301.03 609.70,302.00 614.93,301.73 620.16,301.96 625.39,301.91 630.61,301.97 635.84,301.99 641.07,301.97 646.30,301.98 651.53,301.79 656.76,302.00 661.99,300.69 667.22,301.49 672.45,272.83 677.68,291.14 682.91,298.32 688.14,281.45 693.37,301.86 698.60,301.85 703.82,301.74 709.05,301.96 714.28,302.00 719.51,301.94 724.74,299.08 729.97,301.56 735.20,244.80 740.43,302.00 745.66,296.93 750.89,302.00 756.12,301.99 761.35,301.81 766.58,298.52 771.80,302.09 777.03,301.99 782.26,293.88 787.49,298.22 792.72,303.52 797.95,302.00 803.18,302.00 808.41,302.00 813.64,301.99 818.87,302.11 824.10,301.92 829.33,301.84 834.56,302.00 839.79,301.98 845.01,299.44 850.24,300.96 855.47,297.49 860.70,305.03 865.93,300.50 871.16,295.77 876.39,300.83 881.62,302.54 886.85,301.52 892.08,301.95 897.31,301.60 902.54,301.88 907.77,301.99 913.00,302.52 918.22,301.76 923.45,301.24 928.68,302.00 933.91,301.99 939.14,302.06 944.37,302.00 949.60,301.98 954.83,302.18 960.06,301.46 965.29,303.24 970.52,299.91 975.75,300.99 980.98,304.39 986.20,310.09 991.43,302.52 996.66,301.53 1001.89,301.79 1007.12,301.88 1012.35,302.00 1017.58,313.77 1022.81,299.46 1028.04,304.49 1033.27,287.97 1038.50,302.27 1043.73,288.11 1048.96,301.60 1054.19,147.67 1059.41,301.72 1064.64,301.98 1069.87,301.65 1075.10,301.98 1080.33,301.96 1085.56,301.94 1090.79,302.00 1096.02,302.00 1101.25,301.98 1106.48,301.99 1111.71,301.98 1116.94,302.00 1122.17,302.00 1127.40,301.99 1132.62,300.45 1137.85,281.79 1143.08,301.80 1148.31,296.25 1153.54,301.95 1158.77,305.01 1164.00,302.00" fill="none" stroke="#4f46e5" stroke-width="2.5" stroke-linecap="round" stroke-linejoin="round" />
  <g>
    <circle cx="92.00" cy="290.89" r="2.8" fill="#0f766e"><title>96e29b8 · 2025-08-24 · +2.2k lines · Initial commit from Create Next App</title></circle>
    <circle cx="97.23" cy="299.04" r="2.8" fill="#0f766e"><title>fda3af8 · 2025-08-25 · +598 lines · template complete</title></circle>
    <circle cx="102.46" cy="301.89" r="2.8" fill="#0f766e"><title>6d98fa3 · 2025-08-25 · +22 lines · version pinning post script</title></circle>
    <circle cx="107.69" cy="301.93" r="2.8" fill="#0f766e"><title>0a9b4e0 · 2025-08-26 · +15 lines · small updates</title></circle>
    <circle cx="112.92" cy="301.98" r="2.8" fill="#0f766e"><title>e0cb2f1 · 2025-08-26 · +4 lines · keywords config</title></circle>
    <circle cx="118.15" cy="301.90" r="2.8" fill="#0f766e"><title>d89a1d6 · 2025-09-23 · +20 lines · vh-max</title></circle>
    <circle cx="123.38" cy="298.38" r="2.8" fill="#0f766e"><title>f6bf1a3 · 2025-10-28 · +731 lines · toast + error + tailwind breakpoint hook</title></circle>
    <circle cx="128.60" cy="301.97" r="2.8" fill="#0f766e"><title>31b4033 · 2025-12-02 · +7 lines · portal id feature, nav config simplfied + next16.06</title></circle>
    <circle cx="133.83" cy="274.13" r="2.8" fill="#0f766e"><title>c6d6871 · 2025-12-26 · +5.6k lines · new ui component strategy</title></circle>
    <circle cx="139.06" cy="301.55" r="2.8" fill="#0f766e"><title>f65ef72 · 2025-12-27 · +90 lines · coverting rest to new system</title></circle>
    <circle cx="144.29" cy="297.78" r="2.8" fill="#0f766e"><title>4558e58 · 2025-12-27 · +852 lines · Icon, Layout components, motion components</title></circle>
    <circle cx="149.52" cy="301.99" r="2.8" fill="#0f766e"><title>a63133a · 2025-12-27 · +2 lines · More heading sizes</title></circle>
    <circle cx="154.75" cy="302.00" r="2.8" fill="#0f766e"><title>1fd668b · 2025-12-27 · +1 lines · Small heading correction</title></circle>
    <circle cx="159.98" cy="302.06" r="2.8" fill="#be123c"><title>ac3c039 · 2025-12-28 · -12 lines · site map config</title></circle>
    <circle cx="165.21" cy="301.99" r="2.8" fill="#0f766e"><title>de4635f · 2025-12-28 · +2 lines · crash and not found with section</title></circle>
    <circle cx="170.44" cy="302.00" r="2.8" fill="#be123c"><title>719c6bc · 2026-01-01 · -1 lines · small edits</title></circle>
    <circle cx="175.67" cy="301.41" r="2.8" fill="#0f766e"><title>d724780 · 2026-01-07 · +120 lines · layout fixes</title></circle>
    <circle cx="180.90" cy="302.00" r="2.8" fill="#64748b"><title>c9c48f8 · 2026-01-10 · 0 lines · small fix</title></circle>
    <circle cx="186.13" cy="301.26" r="2.8" fill="#0f766e"><title>12af7b1 · 2026-01-11 · +150 lines · small updates</title></circle>
    <circle cx="191.36" cy="273.66" r="2.8" fill="#0f766e"><title>71cf5f4 · 2026-02-18 · +5.7k lines · Best from 8-ball project</title></circle>
    <circle cx="196.59" cy="302.00" r="2.8" fill="#be123c"><title>b898054 · 2026-02-18 · -1 lines · a</title></circle>
    <circle cx="201.81" cy="275.24" r="2.8" fill="#0f766e"><title>9e6aed3 · 2026-03-13 · +5.4k lines · Best from Argos</title></circle>
    <circle cx="207.04" cy="301.90" r="2.8" fill="#0f766e"><title>43d28e6 · 2026-03-13 · +21 lines · Read me updates</title></circle>
    <circle cx="212.27" cy="301.81" r="2.8" fill="#0f766e"><title>160f187 · 2026-03-14 · +39 lines · Small changes</title></circle>
    <circle cx="217.50" cy="297.31" r="2.8" fill="#0f766e"><title>e53e12a · 2026-03-18 · +948 lines · UPgrades from madad</title></circle>
    <circle cx="222.73" cy="295.67" r="2.8" fill="#0f766e"><title>83c8415 · 2026-03-30 · +1.3k lines · Additional Madad updates</title></circle>
    <circle cx="227.96" cy="299.99" r="2.8" fill="#0f766e"><title>6c69df2 · 2026-04-16 · +406 lines · Tazweed updates</title></circle>
    <circle cx="233.19" cy="289.37" r="2.8" fill="#0f766e"><title>6a7b5c8 · 2026-04-19 · +2.6k lines · Dashboard + Dictionary</title></circle>
    <circle cx="238.42" cy="297.64" r="2.8" fill="#0f766e"><title>e166c72 · 2026-04-19 · +881 lines · Small fixes</title></circle>
    <circle cx="243.65" cy="299.93" r="2.8" fill="#0f766e"><title>65ada20 · 2026-04-23 · +419 lines · Dashboard polish</title></circle>
    <circle cx="248.88" cy="299.12" r="2.8" fill="#0f766e"><title>6877949 · 2026-04-28 · +581 lines · Partial from Zero Emisions Platform V2</title></circle>
    <circle cx="254.11" cy="282.37" r="2.8" fill="#0f766e"><title>4a15195 · 2026-05-03 · +4k lines · Zero emisions full port + workflow updates</title></circle>
    <circle cx="259.34" cy="263.48" r="2.8" fill="#0f766e"><title>ffc9603 · 2026-05-16 · +7.8k lines · Add Payload-ready marketing content scaffold</title></circle>
    <circle cx="264.57" cy="301.98" r="2.8" fill="#0f766e"><title>2b8b6af · 2026-05-16 · +5 lines · Ignore local worktree and dev outputs</title></circle>
    <circle cx="269.80" cy="301.25" r="2.8" fill="#0f766e"><title>0b8c873 · 2026-05-16 · +151 lines · chore: clean lint and dependency warnings</title></circle>
    <circle cx="275.02" cy="301.75" r="2.8" fill="#0f766e"><title>9ffc0ec · 2026-05-16 · +50 lines · chore: update dependency patch set</title></circle>
    <circle cx="280.25" cy="302.00" r="2.8" fill="#64748b"><title>97a6087 · 2026-05-16 · 0 lines · chore: verify TypeScript 6 compatibility</title></circle>
    <circle cx="285.48" cy="299.26" r="2.8" fill="#0f766e"><title>af34369 · 2026-05-16 · +554 lines · feat: finalize template worktree ports</title></circle>
    <circle cx="290.71" cy="301.99" r="2.8" fill="#0f766e"><title>b1e3dfe · 2026-05-16 · +3 lines · feat: add image switcher primitive</title></circle>
    <circle cx="295.94" cy="299.05" r="2.8" fill="#0f766e"><title>2b4569d · 2026-05-16 · +596 lines · Add reveal group item scheduler</title></circle>
    <circle cx="301.17" cy="301.89" r="2.8" fill="#0f766e"><title>fb3cc99 · 2026-05-16 · +23 lines · fix: stabilize image switcher preload keys</title></circle>
    <circle cx="306.40" cy="302.00" r="2.8" fill="#64748b"><title>76f8938 · 2026-05-17 · 0 lines · Move playground into marketing internal group</title></circle>
    <circle cx="311.63" cy="305.13" r="2.8" fill="#be123c"><title>0cc70ee · 2026-05-17 · -632 lines · Consolidate reveal image load strategy</title></circle>
    <circle cx="316.86" cy="300.75" r="2.8" fill="#0f766e"><title>877486d · 2026-05-18 · +253 lines · Local</title></circle>
    <circle cx="322.09" cy="300.20" r="2.8" fill="#0f766e"><title>b96eb59 · 2026-05-19 · +364 lines · Document responsive rendering breakpoint guidance</title></circle>
    <circle cx="327.32" cy="301.31" r="2.8" fill="#0f766e"><title>73f29d6 · 2026-05-23 · +140 lines · Checkpoint main interaction updates</title></circle>
    <circle cx="332.55" cy="295.72" r="2.8" fill="#0f766e"><title>302871e · 2026-05-23 · +1.3k lines · Ship production updates</title></circle>
    <circle cx="337.78" cy="293.73" r="2.8" fill="#0f766e"><title>1b71eb3 · 2026-05-23 · +1.7k lines · Add template intelligence surface</title></circle>
    <circle cx="343.00" cy="276.64" r="2.8" fill="#0f766e"><title>ce1467b · 2026-05-25 · +5.1k lines · Ship production updates</title></circle>
    <circle cx="348.23" cy="301.78" r="2.8" fill="#0f766e"><title>b569257 · 2026-05-25 · +44 lines · Allow template internal routes in production</title></circle>
    <circle cx="353.46" cy="406.63" r="2.8" fill="#be123c"><title>76d6314 · 2026-06-09 · -21k lines · Add optional thin-start activation path</title></circle>
    <circle cx="358.69" cy="197.37" r="2.8" fill="#0f766e"><title>84cd3c6 · 2026-06-09 · +21k lines · Revert &quot;Add optional thin-start activation path&quot;</title></circle>
    <circle cx="363.92" cy="286.10" r="2.8" fill="#0f766e"><title>19f465b · 2026-06-09 · +3.2k lines · Add optional thin-start activation tooling</title></circle>
    <circle cx="369.15" cy="301.70" r="2.8" fill="#0f766e"><title>36d0239 · 2026-06-09 · +60 lines · Document thin-start instance activation path</title></circle>
    <circle cx="374.38" cy="299.59" r="2.8" fill="#0f766e"><title>7235466 · 2026-06-09 · +487 lines · Harden lightweight prune reset path</title></circle>
    <circle cx="379.61" cy="423.68" r="2.8" fill="#be123c"><title>c7397aa · 2026-06-09 · -25k lines · Ship production updates</title></circle>
    <circle cx="384.84" cy="298.93" r="2.8" fill="#0f766e"><title>4ef60ee · 2026-06-29 · +621 lines · chore: publish Averlo Next Template</title></circle>
    <circle cx="390.07" cy="301.98" r="2.8" fill="#0f766e"><title>76e04f3 · 2026-06-29 · +5 lines · docs: finalize Averlo README</title></circle>
    <circle cx="395.30" cy="175.07" r="2.8" fill="#0f766e"><title>948efcd · 2026-07-03 · +26k lines · Restore full template surface after accidental prune</title></circle>
    <circle cx="400.53" cy="301.96" r="2.8" fill="#0f766e"><title>18baf59 · 2026-07-03 · +9 lines · Refresh backport ledger after template recovery</title></circle>
    <circle cx="405.76" cy="301.53" r="2.8" fill="#0f766e"><title>876b9b9 · 2026-07-03 · +95 lines · Backport modal focus management</title></circle>
    <circle cx="410.99" cy="301.33" r="2.8" fill="#0f766e"><title>24ee03b · 2026-07-03 · +135 lines · Backport generic metadata helper</title></circle>
    <circle cx="416.21" cy="295.85" r="2.8" fill="#0f766e"><title>80d4d72 · 2026-07-04 · +1.2k lines · Backport markdown renderer</title></circle>
    <circle cx="421.44" cy="301.96" r="2.8" fill="#0f766e"><title>7e859b8 · 2026-07-04 · +9 lines · Reuse choice indicator in markdown tasks</title></circle>
    <circle cx="426.67" cy="301.23" r="2.8" fill="#0f766e"><title>9302a7e · 2026-07-04 · +156 lines · Move markdown renderer to composites</title></circle>
    <circle cx="431.90" cy="299.04" r="2.8" fill="#0f766e"><title>3ac8890 · 2026-07-04 · +597 lines · Include choice inputs in thin start</title></circle>
    <circle cx="437.13" cy="292.25" r="2.8" fill="#0f766e"><title>442a4ad · 2026-07-04 · +2k lines · Backport scroll performance tooling</title></circle>
    <circle cx="442.36" cy="303.31" r="2.8" fill="#be123c"><title>5f0a8ac · 2026-07-04 · -265 lines · Rebuild scroll performance tooling around page targets</title></circle>
    <circle cx="447.59" cy="300.56" r="2.8" fill="#0f766e"><title>9a50fe8 · 2026-07-04 · +291 lines · Add normalized scroll performance scoring gates</title></circle>
    <circle cx="452.82" cy="301.88" r="2.8" fill="#0f766e"><title>cfb763f · 2026-07-04 · +25 lines · Document scroll performance autoresearch harness</title></circle>
    <circle cx="458.05" cy="301.97" r="2.8" fill="#0f766e"><title>94ed9a8 · 2026-07-04 · +7 lines · Generalize fallback marketing page map</title></circle>
    <circle cx="463.28" cy="299.01" r="2.8" fill="#0f766e"><title>2416a89 · 2026-07-04 · +604 lines · Make Serena warm optional</title></circle>
    <circle cx="468.51" cy="301.95" r="2.8" fill="#0f766e"><title>149a3cd · 2026-07-04 · +10 lines · Document warm optional agent harnesses</title></circle>
    <circle cx="473.74" cy="301.99" r="2.8" fill="#0f766e"><title>2cb3408 · 2026-07-04 · +2 lines · Link scroll autoresearch harness</title></circle>
    <circle cx="478.97" cy="301.23" r="2.8" fill="#0f766e"><title>a19ed47 · 2026-07-05 · +156 lines · Add repo intelligence benchmark pilot</title></circle>
    <circle cx="484.20" cy="300.19" r="2.8" fill="#0f766e"><title>6bf5bfe · 2026-07-06 · +366 lines · Ship template orchestration and review workflow updates</title></circle>
    <circle cx="489.42" cy="301.27" r="2.8" fill="#0f766e"><title>06f0121 · 2026-07-06 · +148 lines · Port generic layer flood loading mount</title></circle>
    <circle cx="494.65" cy="302.65" r="2.8" fill="#be123c"><title>774b513 · 2026-07-07 · -132 lines · Keep loading skip override only</title></circle>
    <circle cx="499.88" cy="301.91" r="2.8" fill="#0f766e"><title>840c057 · 2026-07-07 · +19 lines · Prevent loading skip flicker</title></circle>
    <circle cx="505.11" cy="301.69" r="2.8" fill="#0f766e"><title>d6c7083 · 2026-07-07 · +63 lines · Backport reveal automation overrides</title></circle>
    <circle cx="510.34" cy="301.58" r="2.8" fill="#0f766e"><title>74864db · 2026-07-07 · +85 lines · Refactor reveal scheduler internals</title></circle>
    <circle cx="515.57" cy="297.03" r="2.8" fill="#0f766e"><title>59c1b27 · 2026-07-07 · +1k lines · Backport reusable motion and UI references</title></circle>
    <circle cx="520.80" cy="301.83" r="2.8" fill="#0f766e"><title>8654222 · 2026-07-18 · +35 lines · Stage template profile architecture decisions</title></circle>
    <circle cx="526.03" cy="301.92" r="2.8" fill="#0f766e"><title>9dbf009 · 2026-07-18 · +16 lines · Stage Panel and Card architecture</title></circle>
    <circle cx="531.26" cy="301.94" r="2.8" fill="#0f766e"><title>7496b4d · 2026-07-18 · +13 lines · Stage parallel template profile architecture</title></circle>
    <circle cx="536.49" cy="301.89" r="2.8" fill="#0f766e"><title>138fc9a · 2026-07-18 · +23 lines · Stage dashboard foundation architecture</title></circle>
    <circle cx="541.72" cy="301.90" r="2.8" fill="#0f766e"><title>7c5dd72 · 2026-07-18 · +21 lines · Stage organization-first dashboard routes</title></circle>
    <circle cx="546.95" cy="301.86" r="2.8" fill="#0f766e"><title>2987908 · 2026-07-18 · +28 lines · Stage organization context architecture</title></circle>
    <circle cx="552.18" cy="301.92" r="2.8" fill="#0f766e"><title>35e8a85 · 2026-07-18 · +16 lines · Stage organization selection and record interactions</title></circle>
    <circle cx="557.40" cy="301.93" r="2.8" fill="#0f766e"><title>381da0b · 2026-07-18 · +15 lines · Stage organization selection and settings architecture</title></circle>
    <circle cx="562.63" cy="301.96" r="2.8" fill="#0f766e"><title>f751989 · 2026-07-18 · +9 lines · Stage template instance activation boundary</title></circle>
    <circle cx="567.86" cy="301.98" r="2.8" fill="#0f766e"><title>b96a62f · 2026-07-18 · +5 lines · Stage final architecture disposition</title></circle>
    <circle cx="573.09" cy="301.94" r="2.8" fill="#0f766e"><title>601cf77 · 2026-07-18 · +13 lines · Stage template visual system parity</title></circle>
    <circle cx="578.32" cy="301.99" r="2.8" fill="#0f766e"><title>4f0a56a · 2026-07-18 · +2 lines · Stage architecture consolidation safeguards</title></circle>
    <circle cx="583.55" cy="302.00" r="2.8" fill="#0f766e"><title>609bbad · 2026-07-19 · +1 lines · Pin Inference Console visual baseline</title></circle>
    <circle cx="588.78" cy="301.99" r="2.8" fill="#0f766e"><title>0f15cbd · 2026-07-19 · +3 lines · Stage final architecture structure</title></circle>
    <circle cx="594.01" cy="301.87" r="2.8" fill="#0f766e"><title>b107890 · 2026-07-19 · +27 lines · Stage additional component convergence</title></circle>
    <circle cx="599.24" cy="301.95" r="2.8" fill="#0f766e"><title>8475bf8 · 2026-07-19 · +10 lines · Stage component dependency and parity boundaries</title></circle>
    <circle cx="604.47" cy="301.03" r="2.8" fill="#0f766e"><title>ff2c9de · 2026-07-19 · +196 lines · Consolidate template architecture</title></circle>
    <circle cx="609.70" cy="302.00" r="2.8" fill="#0f766e"><title>90fd623 · 2026-07-19 · +1 lines · Complete architecture parity review</title></circle>
    <circle cx="614.93" cy="301.73" r="2.8" fill="#0f766e"><title>58256ab · 2026-07-19 · +55 lines · Extend dashboard entity architecture</title></circle>
    <circle cx="620.16" cy="301.96" r="2.8" fill="#0f766e"><title>3ee4d97 · 2026-07-19 · +8 lines · Refine dashboard presentation boundaries</title></circle>
    <circle cx="625.39" cy="301.91" r="2.8" fill="#0f766e"><title>7469a0a · 2026-07-19 · +19 lines · Stage authentication lifecycle architecture</title></circle>
    <circle cx="630.61" cy="301.97" r="2.8" fill="#0f766e"><title>9b66eee · 2026-07-19 · +7 lines · Stage dashboard component state contracts</title></circle>
    <circle cx="635.84" cy="301.99" r="2.8" fill="#0f766e"><title>efdde78 · 2026-07-19 · +2 lines · Stage selective component boundaries</title></circle>
    <circle cx="641.07" cy="301.97" r="2.8" fill="#0f766e"><title>eda5e92 · 2026-07-19 · +7 lines · Stage command and input convergence</title></circle>
    <circle cx="646.30" cy="301.98" r="2.8" fill="#0f766e"><title>63c133a · 2026-07-19 · +5 lines · Stage remaining reusable surface contracts</title></circle>
    <circle cx="651.53" cy="301.79" r="2.8" fill="#0f766e"><title>feb352b · 2026-07-19 · +43 lines · Consolidate source rescan architecture</title></circle>
    <circle cx="656.76" cy="302.00" r="2.8" fill="#64748b"><title>8dcc3f2 · 2026-07-19 · 0 lines · Review consolidated architecture contracts</title></circle>
    <circle cx="661.99" cy="300.69" r="2.8" fill="#0f766e"><title>5061682 · 2026-07-19 · +265 lines · Refine thin-start and shared Card surfaces</title></circle>
    <circle cx="667.22" cy="301.49" r="2.8" fill="#0f766e"><title>6cb2c99 · 2026-07-19 · +103 lines · Initialize filesystem-backed inference port</title></circle>
    <circle cx="672.45" cy="272.83" r="2.8" fill="#0f766e"><title>5d79e06 · 2026-07-19 · +5.9k lines · Port shared inference visual system</title></circle>
    <circle cx="677.68" cy="291.14" r="2.8" fill="#0f766e"><title>66a08e1 · 2026-07-19 · +2.2k lines · Add provider-neutral auth and organizations</title></circle>
    <circle cx="682.91" cy="298.32" r="2.8" fill="#0f766e"><title>8140fc3 · 2026-07-20 · +744 lines · Build registry-driven dashboard shell</title></circle>
    <circle cx="688.14" cy="281.45" r="2.8" fill="#0f766e"><title>f88f569 · 2026-07-20 · +4.2k lines · Complete dashboard reference entity port</title></circle>
    <circle cx="693.37" cy="301.86" r="2.8" fill="#0f766e"><title>d5cd83f · 2026-07-20 · +29 lines · Match Card defaults to pinned source</title></circle>
    <circle cx="698.60" cy="301.85" r="2.8" fill="#0f766e"><title>0faa24a · 2026-07-20 · +31 lines · Make labeled dividers surface neutral</title></circle>
    <circle cx="703.82" cy="301.74" r="2.8" fill="#0f766e"><title>a2da053 · 2026-07-20 · +53 lines · Stage async mutation policy port</title></circle>
    <circle cx="709.05" cy="301.96" r="2.8" fill="#0f766e"><title>3c046bb · 2026-07-20 · +9 lines · Consolidate async mutation architecture</title></circle>
    <circle cx="714.28" cy="302.00" r="2.8" fill="#64748b"><title>c3f7e4d · 2026-07-20 · 0 lines · Review mutation architecture consolidation</title></circle>
    <circle cx="719.51" cy="301.94" r="2.8" fill="#0f766e"><title>b0c0505 · 2026-07-20 · +12 lines · Match InputFrame defaults to pinned source</title></circle>
    <circle cx="724.74" cy="299.08" r="2.8" fill="#0f766e"><title>415a11d · 2026-07-20 · +590 lines · Standardize modal mutation handoffs</title></circle>
    <circle cx="729.97" cy="301.56" r="2.8" fill="#0f766e"><title>b6855b8 · 2026-07-20 · +89 lines · Reorganize Button hierarchy and danger tone</title></circle>
    <circle cx="735.20" cy="244.80" r="2.8" fill="#0f766e"><title>7942996 · 2026-07-23 · +12k lines · Checkpoint accumulated port review work</title></circle>
    <circle cx="740.43" cy="302.00" r="2.8" fill="#64748b"><title>b5e0fc6 · 2026-07-23 · 0 lines · Integrate mutation policy with polished port</title></circle>
    <circle cx="745.66" cy="296.93" r="2.8" fill="#0f766e"><title>f8aa224 · 2026-07-23 · +1k lines · Harden dependencies and close out inference port</title></circle>
    <circle cx="750.89" cy="302.00" r="2.8" fill="#64748b"><title>ec620dc · 2026-07-23 · 0 lines · Keep dependency pinning idempotent</title></circle>
    <circle cx="756.12" cy="301.99" r="2.8" fill="#0f766e"><title>8f9e913 · 2026-07-23 · +3 lines · Finalize inference port handoff</title></circle>
    <circle cx="761.35" cy="301.81" r="2.8" fill="#0f766e"><title>c705d0c · 2026-07-23 · +39 lines · Stage benchmark evidence recording policy</title></circle>
    <circle cx="766.58" cy="298.52" r="2.8" fill="#0f766e"><title>71ae98c · 2026-07-23 · +704 lines · Make intelligence benchmarks evidence driven</title></circle>
    <circle cx="771.80" cy="302.09" r="2.8" fill="#be123c"><title>01a4f1e · 2026-07-23 · -18 lines · Narrow intelligence architecture to cleanup</title></circle>
    <circle cx="777.03" cy="301.99" r="2.8" fill="#0f766e"><title>5cc2c7d · 2026-07-23 · +3 lines · Clarify benchmark cleanup disposition</title></circle>
    <circle cx="782.26" cy="293.88" r="2.8" fill="#0f766e"><title>1d4a3c4 · 2026-07-23 · +1.6k lines · Add prune-aware dashboard intelligence</title></circle>
    <circle cx="787.49" cy="298.22" r="2.8" fill="#0f766e"><title>c2bd239 · 2026-07-23 · +764 lines · Integrate service assembly into homepage hero</title></circle>
    <circle cx="792.72" cy="303.52" r="2.8" fill="#be123c"><title>867bf1a · 2026-07-23 · -308 lines · Reorganize frontend ownership surfaces</title></circle>
    <circle cx="797.95" cy="302.00" r="2.8" fill="#64748b"><title>581e7e7 · 2026-07-23 · 0 lines · Integrate template intelligence updates</title></circle>
    <circle cx="803.18" cy="302.00" r="2.8" fill="#64748b"><title>ef95119 · 2026-07-23 · 0 lines · Integrate homepage service assembly</title></circle>
    <circle cx="808.41" cy="302.00" r="2.8" fill="#64748b"><title>5cdcde7 · 2026-07-23 · 0 lines · Integrate frontend ownership cleanup</title></circle>
    <circle cx="813.64" cy="301.99" r="2.8" fill="#0f766e"><title>8ff7fe1 · 2026-07-23 · +2 lines · Align thin profile integration contracts</title></circle>
    <circle cx="818.87" cy="302.11" r="2.8" fill="#be123c"><title>5b31bc3 · 2026-07-23 · -23 lines · Make home hero callouts hover only</title></circle>
    <circle cx="824.10" cy="301.92" r="2.8" fill="#0f766e"><title>7c49f3b · 2026-07-23 · +17 lines · Restore home hero callout layout motion</title></circle>
    <circle cx="829.33" cy="301.84" r="2.8" fill="#0f766e"><title>a571de5 · 2026-07-23 · +32 lines · Show dashboard redirect state reliably</title></circle>
    <circle cx="834.56" cy="302.00" r="2.8" fill="#64748b"><title>94ca212 · 2026-07-23 · 0 lines · Center dashboard status frames</title></circle>
    <circle cx="839.79" cy="301.98" r="2.8" fill="#0f766e"><title>d9d3354 · 2026-07-23 · +5 lines · Canonicalize dashboard overview route</title></circle>
    <circle cx="845.01" cy="299.44" r="2.8" fill="#0f766e"><title>732b630 · 2026-07-24 · +518 lines · Standardize dashboard page surface ownership</title></circle>
    <circle cx="850.24" cy="300.96" r="2.8" fill="#0f766e"><title>95ae3ad · 2026-07-24 · +211 lines · Split internal demo catalogue by page family</title></circle>
    <circle cx="855.47" cy="297.49" r="2.8" fill="#0f766e"><title>de19f91 · 2026-07-25 · +911 lines · Add skeleton overlap geometry pilot</title></circle>
    <circle cx="860.70" cy="305.03" r="2.8" fill="#be123c"><title>37cee75 · 2026-07-25 · -613 lines · Ship production updates</title></circle>
    <circle cx="865.93" cy="300.50" r="2.8" fill="#0f766e"><title>96248e8 · 2026-07-26 · +304 lines · feat: add template profile materialization</title></circle>
    <circle cx="871.16" cy="295.77" r="2.8" fill="#0f766e"><title>0bf79f4 · 2026-07-26 · +1.3k lines · feat: add positive template assembly engine</title></circle>
    <circle cx="876.39" cy="300.83" r="2.8" fill="#0f766e"><title>3578e63 · 2026-07-26 · +236 lines · Ship production updates</title></circle>
    <circle cx="881.62" cy="302.54" r="2.8" fill="#be123c"><title>876b384 · 2026-07-26 · -109 lines · Ship production updates</title></circle>
    <circle cx="886.85" cy="301.52" r="2.8" fill="#0f766e"><title>c7b96f8 · 2026-07-26 · +97 lines · Persist fixture sessions across redirects</title></circle>
    <circle cx="892.08" cy="301.95" r="2.8" fill="#0f766e"><title>c403398 · 2026-07-26 · +11 lines · fix: separate compact header menu gutters</title></circle>
    <circle cx="897.31" cy="301.60" r="2.8" fill="#0f766e"><title>231f622 · 2026-07-26 · +81 lines · chore: add compact header architecture demo</title></circle>
    <circle cx="902.54" cy="301.88" r="2.8" fill="#0f766e"><title>d28af2d · 2026-07-26 · +25 lines · chore: extend header architecture demo to desktop</title></circle>
    <circle cx="907.77" cy="301.99" r="2.8" fill="#0f766e"><title>fb3a789 · 2026-07-26 · +3 lines · fix: decentralize desktop header gutters</title></circle>
    <circle cx="913.00" cy="302.52" r="2.8" fill="#be123c"><title>1120941 · 2026-07-26 · -105 lines · Ship production updates</title></circle>
    <circle cx="918.22" cy="301.76" r="2.8" fill="#0f766e"><title>3b74ada · 2026-07-28 · +48 lines · Ship production updates</title></circle>
    <circle cx="923.45" cy="301.24" r="2.8" fill="#0f766e"><title>edd255a · 2026-07-29 · +154 lines · Ship production updates</title></circle>
    <circle cx="928.68" cy="302.00" r="2.8" fill="#64748b"><title>d151160 · 2026-07-29 · 0 lines · feat: route marketing CTAs to dashboard login</title></circle>
    <circle cx="933.91" cy="301.99" r="2.8" fill="#0f766e"><title>3c96130 · 2026-07-29 · +3 lines · fix: align account identity spacing</title></circle>
    <circle cx="939.14" cy="302.06" r="2.8" fill="#be123c"><title>bfe407a · 2026-07-29 · -12 lines · refactor: compose settings account identity</title></circle>
    <circle cx="944.37" cy="302.00" r="2.8" fill="#64748b"><title>ce958b1 · 2026-07-29 · 0 lines · fix: align organization identity spacing</title></circle>
    <circle cx="949.60" cy="301.98" r="2.8" fill="#0f766e"><title>716eaad · 2026-07-29 · +4 lines · fix: unify identity presentation spacing</title></circle>
    <circle cx="954.83" cy="302.18" r="2.8" fill="#be123c"><title>15e062b · 2026-07-29 · -36 lines · fix: unify entity identity presentation</title></circle>
    <circle cx="960.06" cy="301.46" r="2.8" fill="#0f766e"><title>a6ceefa · 2026-07-29 · +109 lines · refactor: centralize entity identity layout</title></circle>
    <circle cx="965.29" cy="303.24" r="2.8" fill="#be123c"><title>5b5a3d7 · 2026-07-29 · -250 lines · refactor: improve code clarity and modularize dropdown</title></circle>
    <circle cx="970.52" cy="299.91" r="2.8" fill="#0f766e"><title>146bfc2 · 2026-07-29 · +422 lines · refactor: decouple positive assembly from prune</title></circle>
    <circle cx="975.75" cy="300.99" r="2.8" fill="#0f766e"><title>ab04dd1 · 2026-07-29 · +204 lines · feat: add positive template content selection</title></circle>
    <circle cx="980.98" cy="304.39" r="2.8" fill="#be123c"><title>315a5a1 · 2026-07-29 · -483 lines · refactor: make positive assembly the only project creator</title></circle>
    <circle cx="986.20" cy="310.09" r="2.8" fill="#be123c"><title>6f21c2f · 2026-07-29 · -1.6k lines · refactor: retire template prune compatibility</title></circle>
    <circle cx="991.43" cy="302.52" r="2.8" fill="#be123c"><title>7dbf647 · 2026-07-29 · -106 lines · refactor: remove legacy prune terminology</title></circle>
    <circle cx="996.66" cy="301.53" r="2.8" fill="#0f766e"><title>83612d2 · 2026-07-29 · +94 lines · refactor: modularize markdown editor internals</title></circle>
    <circle cx="1001.89" cy="301.79" r="2.8" fill="#0f766e"><title>abf60a3 · 2026-07-29 · +42 lines · refactor: namespace markdown composite exports</title></circle>
    <circle cx="1007.12" cy="301.88" r="2.8" fill="#0f766e"><title>722a81f · 2026-07-29 · +24 lines · docs: clarify component API ownership</title></circle>
    <circle cx="1012.35" cy="302.00" r="2.8" fill="#64748b"><title>839828e · 2026-07-29 · 0 lines · docs: name component API patterns semantically</title></circle>
    <circle cx="1017.58" cy="313.77" r="2.8" fill="#be123c"><title>7873a45 · 2026-07-29 · -2.4k lines · refactor: organize documentation by ownership</title></circle>
    <circle cx="1022.81" cy="299.46" r="2.8" fill="#0f766e"><title>e72d405 · 2026-07-29 · +513 lines · docs: organize component conventions by pattern</title></circle>
    <circle cx="1028.04" cy="304.49" r="2.8" fill="#be123c"><title>812190e · 2026-07-30 · -504 lines · Ship production updates</title></circle>
    <circle cx="1033.27" cy="287.97" r="2.8" fill="#0f766e"><title>666f822 · 2026-07-30 · +2.8k lines · Ship production updates</title></circle>
    <circle cx="1038.50" cy="302.27" r="2.8" fill="#be123c"><title>f1580f9 · 2026-07-30 · -54 lines · Ship production updates</title></circle>
    <circle cx="1043.73" cy="288.11" r="2.8" fill="#0f766e"><title>7f7f5de · 2026-07-30 · +2.8k lines · Ship production updates</title></circle>
    <circle cx="1048.96" cy="301.60" r="2.8" fill="#0f766e"><title>8aced5a · 2026-07-30 · +81 lines · Ship production updates</title></circle>
    <circle cx="1054.19" cy="147.67" r="2.8" fill="#0f766e"><title>344e7e0 · 2026-08-02 · +31k lines · Ship production updates</title></circle>
    <circle cx="1059.41" cy="301.72" r="2.8" fill="#0f766e"><title>42b2d62 · 2026-08-02 · +57 lines · Ship production updates</title></circle>
    <circle cx="1064.64" cy="301.98" r="2.8" fill="#0f766e"><title>4814b0c · 2026-08-02 · +5 lines · fix: cap marketing header links</title></circle>
    <circle cx="1069.87" cy="301.65" r="2.8" fill="#0f766e"><title>4ff3707 · 2026-08-02 · +71 lines · Ship production updates</title></circle>
    <circle cx="1075.10" cy="301.98" r="2.8" fill="#0f766e"><title>9850fd7 · 2026-08-02 · +4 lines · style: compact dashboard shell</title></circle>
    <circle cx="1080.33" cy="301.96" r="2.8" fill="#0f766e"><title>e35ed97 · 2026-08-02 · +9 lines · style: compact dashboard navigation</title></circle>
    <circle cx="1085.56" cy="301.94" r="2.8" fill="#0f766e"><title>a4d4da9 · 2026-08-02 · +13 lines · fix: avoid empty sidebar accordions</title></circle>
    <circle cx="1090.79" cy="302.00" r="2.8" fill="#0f766e"><title>3c9d5e2 · 2026-08-02 · +1 lines · style: align sidebar disclosure action</title></circle>
    <circle cx="1096.02" cy="302.00" r="2.8" fill="#0f766e"><title>80f7310 · 2026-08-02 · +1 lines · fix: constrain collapsed sidebar track</title></circle>
    <circle cx="1101.25" cy="301.98" r="2.8" fill="#0f766e"><title>cf20f08 · 2026-08-02 · +5 lines · fix: scale compact organization avatar</title></circle>
    <circle cx="1106.48" cy="301.99" r="2.8" fill="#0f766e"><title>f66c88b · 2026-08-02 · +3 lines · style: refine compact organization avatar</title></circle>
    <circle cx="1111.71" cy="301.98" r="2.8" fill="#0f766e"><title>7385a5a · 2026-08-02 · +4 lines · fix: align compact avatar with nav rows</title></circle>
    <circle cx="1116.94" cy="302.00" r="2.8" fill="#64748b"><title>a687886 · 2026-08-02 · 0 lines · style: cap compact organization avatar</title></circle>
    <circle cx="1122.17" cy="302.00" r="2.8" fill="#0f766e"><title>64b5aa3 · 2026-08-02 · +1 lines · fix: show logo in open compact sidebar</title></circle>
    <circle cx="1127.40" cy="301.99" r="2.8" fill="#0f766e"><title>cfd4d13 · 2026-08-02 · +2 lines · fix: restore assistant composer surface</title></circle>
    <circle cx="1132.62" cy="300.45" r="2.8" fill="#0f766e"><title>698016c · 2026-08-02 · +314 lines · Ship production updates</title></circle>
    <circle cx="1137.85" cy="281.79" r="2.8" fill="#0f766e"><title>67e4031 · 2026-08-02 · +4.1k lines · feat: bundle Averlo Codex plugin</title></circle>
    <circle cx="1143.08" cy="301.80" r="2.8" fill="#0f766e"><title>d3bc7eb · 2026-08-02 · +41 lines · fix: clear plugin and build warnings</title></circle>
    <circle cx="1148.31" cy="296.25" r="2.8" fill="#0f766e"><title>9cc78bb · 2026-08-02 · +1.2k lines · Ship production updates</title></circle>
    <circle cx="1153.54" cy="301.95" r="2.8" fill="#0f766e"><title>308df3a · 2026-08-02 · +11 lines · Ship production updates</title></circle>
    <circle cx="1158.77" cy="305.01" r="2.8" fill="#be123c"><title>6a3ebd6 · 2026-08-06 · -609 lines · Ship production updates</title></circle>
    <circle cx="1164.00" cy="302.00" r="2.8" fill="#64748b"><title>11e44ce · 2026-08-06 · 0 lines · Ship production updates</title></circle>
  </g>
  <g class="axis-label">
    <text x="92.00" y="532" text-anchor="start">2025-08-24</text>
    <text x="625.39" y="532" text-anchor="middle">2026-07-19</text>
    <text x="1164.00" y="532" text-anchor="end">2026-08-06</text>
    <text x="1164" y="68" text-anchor="end">Chronological commits →</text>
  </g>
</svg>
