<!-- Generated by scripts/generate-commit-line-delta.mjs. Do not edit directly. -->
<svg xmlns="http://www.w3.org/2000/svg" width="1200" height="560" viewBox="0 0 1200 560" role="img" aria-labelledby="title description">
  <title id="title">Net line delta by commit</title>
  <desc id="description">A chronological line chart showing additions minus deletions for 200 commits. Each point represents one commit.</desc>
  <style>
    .heading { fill: #0f172a; font-family: sans-serif; font-size: 24px; font-weight: 700; }
    .subheading { fill: #475569; font-family: sans-serif; font-size: 14px; }
    .axis-label { fill: #64748b; font-family: sans-serif; font-size: 12px; }
  </style>
  <rect width="1200" height="560" rx="14" fill="#ffffff" />
  <rect x="0.5" y="0.5" width="1199" height="559" rx="13.5" fill="none" stroke="#dbe4ee" />
  <text x="92" y="42" class="heading">Net line delta by commit</text>
  <text x="92" y="68" class="subheading">Additions minus deletions · 200 commits · hover a point for commit details</text>
  <g>
    <line x1="92" x2="1164" y1="104.00" y2="104.00" stroke="#dbe4ee" stroke-width="1" /><text x="78" y="108.00" text-anchor="end" class="axis-label">+40k</text>
    <line x1="92" x2="1164" y1="203.00" y2="203.00" stroke="#dbe4ee" stroke-width="1" /><text x="78" y="207.00" text-anchor="end" class="axis-label">+20k</text>
    <line x1="92" x2="1164" y1="302.00" y2="302.00" stroke="#64748b" stroke-width="1.5" /><text x="78" y="306.00" text-anchor="end" class="axis-label">0</text>
    <line x1="92" x2="1164" y1="401.00" y2="401.00" stroke="#dbe4ee" stroke-width="1" /><text x="78" y="405.00" text-anchor="end" class="axis-label">-20k</text>
    <line x1="92" x2="1164" y1="500.00" y2="500.00" stroke="#dbe4ee" stroke-width="1" /><text x="78" y="504.00" text-anchor="end" class="axis-label">-40k</text>
  </g>
  <polyline points="92.00,290.89 97.39,299.04 102.77,301.89 108.16,301.93 113.55,301.98 118.93,301.90 124.32,298.38 129.71,301.97 135.10,274.13 140.48,301.55 145.87,297.78 151.26,301.99 156.64,302.00 162.03,302.06 167.42,301.99 172.80,302.00 178.19,301.41 183.58,302.00 188.96,301.26 194.35,273.66 199.74,302.00 205.13,275.24 210.51,301.90 215.90,301.81 221.29,297.31 226.67,295.67 232.06,299.99 237.45,289.37 242.83,297.64 248.22,299.93 253.61,299.12 258.99,282.37 264.38,263.48 269.77,301.98 275.16,301.25 280.54,301.75 285.93,302.00 291.32,299.26 296.70,301.99 302.09,299.05 307.48,301.89 312.86,302.00 318.25,305.13 323.64,300.75 329.03,300.20 334.41,301.31 339.80,295.72 345.19,293.73 350.57,276.64 355.96,301.78 361.35,406.63 366.73,197.37 372.12,286.10 377.51,301.70 382.89,299.59 388.28,423.68 393.67,298.93 399.06,301.98 404.44,175.07 409.83,301.96 415.22,301.53 420.60,301.33 425.99,295.85 431.38,301.96 436.76,301.23 442.15,299.04 447.54,292.25 452.92,303.31 458.31,300.56 463.70,301.88 469.09,301.97 474.47,299.01 479.86,301.95 485.25,301.99 490.63,301.23 496.02,300.19 501.41,301.27 506.79,302.65 512.18,301.91 517.57,301.69 522.95,301.58 528.34,297.03 533.73,301.83 539.12,301.92 544.50,301.94 549.89,301.89 555.28,301.90 560.66,301.86 566.05,301.92 571.44,301.93 576.82,301.96 582.21,301.98 587.60,301.94 592.98,301.99 598.37,302.00 603.76,301.99 609.15,301.87 614.53,301.95 619.92,301.03 625.31,302.00 630.69,301.73 636.08,301.96 641.47,301.91 646.85,301.97 652.24,301.99 657.63,301.97 663.02,301.98 668.40,301.79 673.79,302.00 679.18,300.69 684.56,301.49 689.95,272.83 695.34,291.14 700.72,298.32 706.11,281.45 711.50,301.86 716.88,301.85 722.27,301.74 727.66,301.96 733.05,302.00 738.43,301.94 743.82,299.08 749.21,301.56 754.59,244.80 759.98,302.00 765.37,296.93 770.75,302.00 776.14,301.99 781.53,301.81 786.91,298.52 792.30,302.09 797.69,301.99 803.08,293.88 808.46,298.22 813.85,303.52 819.24,302.00 824.62,302.00 830.01,302.00 835.40,301.99 840.78,302.11 846.17,301.92 851.56,301.84 856.94,302.00 862.33,301.98 867.72,299.44 873.11,300.96 878.49,297.49 883.88,305.03 889.27,300.50 894.65,295.77 900.04,300.83 905.43,302.54 910.81,301.52 916.20,301.95 921.59,301.60 926.97,301.88 932.36,301.99 937.75,302.52 943.14,301.76 948.52,301.24 953.91,302.00 959.30,301.99 964.68,302.06 970.07,302.00 975.46,301.98 980.84,302.18 986.23,301.46 991.62,303.24 997.01,299.91 1002.39,300.99 1007.78,304.39 1013.17,310.09 1018.55,302.52 1023.94,301.53 1029.33,301.79 1034.71,301.88 1040.10,302.00 1045.49,313.77 1050.87,299.46 1056.26,304.49 1061.65,287.97 1067.04,302.27 1072.42,288.11 1077.81,301.60 1083.20,147.67 1088.58,301.72 1093.97,301.98 1099.36,301.65 1104.74,301.98 1110.13,301.96 1115.52,301.94 1120.90,302.00 1126.29,302.00 1131.68,301.98 1137.07,301.99 1142.45,301.98 1147.84,302.00 1153.23,302.00 1158.61,301.99 1164.00,300.45" fill="none" stroke="#4f46e5" stroke-width="2.5" stroke-linecap="round" stroke-linejoin="round" />
  <g>
    <circle cx="92.00" cy="290.89" r="2.8" fill="#0f766e"><title>96e29b8 · 2025-08-24 · +2.2k lines · Initial commit from Create Next App</title></circle>
    <circle cx="97.39" cy="299.04" r="2.8" fill="#0f766e"><title>fda3af8 · 2025-08-25 · +598 lines · template complete</title></circle>
    <circle cx="102.77" cy="301.89" r="2.8" fill="#0f766e"><title>6d98fa3 · 2025-08-25 · +22 lines · version pinning post script</title></circle>
    <circle cx="108.16" cy="301.93" r="2.8" fill="#0f766e"><title>0a9b4e0 · 2025-08-26 · +15 lines · small updates</title></circle>
    <circle cx="113.55" cy="301.98" r="2.8" fill="#0f766e"><title>e0cb2f1 · 2025-08-26 · +4 lines · keywords config</title></circle>
    <circle cx="118.93" cy="301.90" r="2.8" fill="#0f766e"><title>d89a1d6 · 2025-09-23 · +20 lines · vh-max</title></circle>
    <circle cx="124.32" cy="298.38" r="2.8" fill="#0f766e"><title>f6bf1a3 · 2025-10-28 · +731 lines · toast + error + tailwind breakpoint hook</title></circle>
    <circle cx="129.71" cy="301.97" r="2.8" fill="#0f766e"><title>31b4033 · 2025-12-02 · +7 lines · portal id feature, nav config simplfied + next16.06</title></circle>
    <circle cx="135.10" cy="274.13" r="2.8" fill="#0f766e"><title>c6d6871 · 2025-12-26 · +5.6k lines · new ui component strategy</title></circle>
    <circle cx="140.48" cy="301.55" r="2.8" fill="#0f766e"><title>f65ef72 · 2025-12-27 · +90 lines · coverting rest to new system</title></circle>
    <circle cx="145.87" cy="297.78" r="2.8" fill="#0f766e"><title>4558e58 · 2025-12-27 · +852 lines · Icon, Layout components, motion components</title></circle>
    <circle cx="151.26" cy="301.99" r="2.8" fill="#0f766e"><title>a63133a · 2025-12-27 · +2 lines · More heading sizes</title></circle>
    <circle cx="156.64" cy="302.00" r="2.8" fill="#0f766e"><title>1fd668b · 2025-12-27 · +1 lines · Small heading correction</title></circle>
    <circle cx="162.03" cy="302.06" r="2.8" fill="#be123c"><title>ac3c039 · 2025-12-28 · -12 lines · site map config</title></circle>
    <circle cx="167.42" cy="301.99" r="2.8" fill="#0f766e"><title>de4635f · 2025-12-28 · +2 lines · crash and not found with section</title></circle>
    <circle cx="172.80" cy="302.00" r="2.8" fill="#be123c"><title>719c6bc · 2026-01-01 · -1 lines · small edits</title></circle>
    <circle cx="178.19" cy="301.41" r="2.8" fill="#0f766e"><title>d724780 · 2026-01-07 · +120 lines · layout fixes</title></circle>
    <circle cx="183.58" cy="302.00" r="2.8" fill="#64748b"><title>c9c48f8 · 2026-01-10 · 0 lines · small fix</title></circle>
    <circle cx="188.96" cy="301.26" r="2.8" fill="#0f766e"><title>12af7b1 · 2026-01-11 · +150 lines · small updates</title></circle>
    <circle cx="194.35" cy="273.66" r="2.8" fill="#0f766e"><title>71cf5f4 · 2026-02-18 · +5.7k lines · Best from 8-ball project</title></circle>
    <circle cx="199.74" cy="302.00" r="2.8" fill="#be123c"><title>b898054 · 2026-02-18 · -1 lines · a</title></circle>
    <circle cx="205.13" cy="275.24" r="2.8" fill="#0f766e"><title>9e6aed3 · 2026-03-13 · +5.4k lines · Best from Argos</title></circle>
    <circle cx="210.51" cy="301.90" r="2.8" fill="#0f766e"><title>43d28e6 · 2026-03-13 · +21 lines · Read me updates</title></circle>
    <circle cx="215.90" cy="301.81" r="2.8" fill="#0f766e"><title>160f187 · 2026-03-14 · +39 lines · Small changes</title></circle>
    <circle cx="221.29" cy="297.31" r="2.8" fill="#0f766e"><title>e53e12a · 2026-03-18 · +948 lines · UPgrades from madad</title></circle>
    <circle cx="226.67" cy="295.67" r="2.8" fill="#0f766e"><title>83c8415 · 2026-03-30 · +1.3k lines · Additional Madad updates</title></circle>
    <circle cx="232.06" cy="299.99" r="2.8" fill="#0f766e"><title>6c69df2 · 2026-04-16 · +406 lines · Tazweed updates</title></circle>
    <circle cx="237.45" cy="289.37" r="2.8" fill="#0f766e"><title>6a7b5c8 · 2026-04-19 · +2.6k lines · Dashboard + Dictionary</title></circle>
    <circle cx="242.83" cy="297.64" r="2.8" fill="#0f766e"><title>e166c72 · 2026-04-19 · +881 lines · Small fixes</title></circle>
    <circle cx="248.22" cy="299.93" r="2.8" fill="#0f766e"><title>65ada20 · 2026-04-23 · +419 lines · Dashboard polish</title></circle>
    <circle cx="253.61" cy="299.12" r="2.8" fill="#0f766e"><title>6877949 · 2026-04-28 · +581 lines · Partial from Zero Emisions Platform V2</title></circle>
    <circle cx="258.99" cy="282.37" r="2.8" fill="#0f766e"><title>4a15195 · 2026-05-03 · +4k lines · Zero emisions full port + workflow updates</title></circle>
    <circle cx="264.38" cy="263.48" r="2.8" fill="#0f766e"><title>ffc9603 · 2026-05-16 · +7.8k lines · Add Payload-ready marketing content scaffold</title></circle>
    <circle cx="269.77" cy="301.98" r="2.8" fill="#0f766e"><title>2b8b6af · 2026-05-16 · +5 lines · Ignore local worktree and dev outputs</title></circle>
    <circle cx="275.16" cy="301.25" r="2.8" fill="#0f766e"><title>0b8c873 · 2026-05-16 · +151 lines · chore: clean lint and dependency warnings</title></circle>
    <circle cx="280.54" cy="301.75" r="2.8" fill="#0f766e"><title>9ffc0ec · 2026-05-16 · +50 lines · chore: update dependency patch set</title></circle>
    <circle cx="285.93" cy="302.00" r="2.8" fill="#64748b"><title>97a6087 · 2026-05-16 · 0 lines · chore: verify TypeScript 6 compatibility</title></circle>
    <circle cx="291.32" cy="299.26" r="2.8" fill="#0f766e"><title>af34369 · 2026-05-16 · +554 lines · feat: finalize template worktree ports</title></circle>
    <circle cx="296.70" cy="301.99" r="2.8" fill="#0f766e"><title>b1e3dfe · 2026-05-16 · +3 lines · feat: add image switcher primitive</title></circle>
    <circle cx="302.09" cy="299.05" r="2.8" fill="#0f766e"><title>2b4569d · 2026-05-16 · +596 lines · Add reveal group item scheduler</title></circle>
    <circle cx="307.48" cy="301.89" r="2.8" fill="#0f766e"><title>fb3cc99 · 2026-05-16 · +23 lines · fix: stabilize image switcher preload keys</title></circle>
    <circle cx="312.86" cy="302.00" r="2.8" fill="#64748b"><title>76f8938 · 2026-05-17 · 0 lines · Move playground into marketing internal group</title></circle>
    <circle cx="318.25" cy="305.13" r="2.8" fill="#be123c"><title>0cc70ee · 2026-05-17 · -632 lines · Consolidate reveal image load strategy</title></circle>
    <circle cx="323.64" cy="300.75" r="2.8" fill="#0f766e"><title>877486d · 2026-05-18 · +253 lines · Local</title></circle>
    <circle cx="329.03" cy="300.20" r="2.8" fill="#0f766e"><title>b96eb59 · 2026-05-19 · +364 lines · Document responsive rendering breakpoint guidance</title></circle>
    <circle cx="334.41" cy="301.31" r="2.8" fill="#0f766e"><title>73f29d6 · 2026-05-23 · +140 lines · Checkpoint main interaction updates</title></circle>
    <circle cx="339.80" cy="295.72" r="2.8" fill="#0f766e"><title>302871e · 2026-05-23 · +1.3k lines · Ship production updates</title></circle>
    <circle cx="345.19" cy="293.73" r="2.8" fill="#0f766e"><title>1b71eb3 · 2026-05-23 · +1.7k lines · Add template intelligence surface</title></circle>
    <circle cx="350.57" cy="276.64" r="2.8" fill="#0f766e"><title>ce1467b · 2026-05-25 · +5.1k lines · Ship production updates</title></circle>
    <circle cx="355.96" cy="301.78" r="2.8" fill="#0f766e"><title>b569257 · 2026-05-25 · +44 lines · Allow template internal routes in production</title></circle>
    <circle cx="361.35" cy="406.63" r="2.8" fill="#be123c"><title>76d6314 · 2026-06-09 · -21k lines · Add optional thin-start activation path</title></circle>
    <circle cx="366.73" cy="197.37" r="2.8" fill="#0f766e"><title>84cd3c6 · 2026-06-09 · +21k lines · Revert &quot;Add optional thin-start activation path&quot;</title></circle>
    <circle cx="372.12" cy="286.10" r="2.8" fill="#0f766e"><title>19f465b · 2026-06-09 · +3.2k lines · Add optional thin-start activation tooling</title></circle>
    <circle cx="377.51" cy="301.70" r="2.8" fill="#0f766e"><title>36d0239 · 2026-06-09 · +60 lines · Document thin-start instance activation path</title></circle>
    <circle cx="382.89" cy="299.59" r="2.8" fill="#0f766e"><title>7235466 · 2026-06-09 · +487 lines · Harden lightweight prune reset path</title></circle>
    <circle cx="388.28" cy="423.68" r="2.8" fill="#be123c"><title>c7397aa · 2026-06-09 · -25k lines · Ship production updates</title></circle>
    <circle cx="393.67" cy="298.93" r="2.8" fill="#0f766e"><title>4ef60ee · 2026-06-29 · +621 lines · chore: publish Averlo Next Template</title></circle>
    <circle cx="399.06" cy="301.98" r="2.8" fill="#0f766e"><title>76e04f3 · 2026-06-29 · +5 lines · docs: finalize Averlo README</title></circle>
    <circle cx="404.44" cy="175.07" r="2.8" fill="#0f766e"><title>948efcd · 2026-07-03 · +26k lines · Restore full template surface after accidental prune</title></circle>
    <circle cx="409.83" cy="301.96" r="2.8" fill="#0f766e"><title>18baf59 · 2026-07-03 · +9 lines · Refresh backport ledger after template recovery</title></circle>
    <circle cx="415.22" cy="301.53" r="2.8" fill="#0f766e"><title>876b9b9 · 2026-07-03 · +95 lines · Backport modal focus management</title></circle>
    <circle cx="420.60" cy="301.33" r="2.8" fill="#0f766e"><title>24ee03b · 2026-07-03 · +135 lines · Backport generic metadata helper</title></circle>
    <circle cx="425.99" cy="295.85" r="2.8" fill="#0f766e"><title>80d4d72 · 2026-07-04 · +1.2k lines · Backport markdown renderer</title></circle>
    <circle cx="431.38" cy="301.96" r="2.8" fill="#0f766e"><title>7e859b8 · 2026-07-04 · +9 lines · Reuse choice indicator in markdown tasks</title></circle>
    <circle cx="436.76" cy="301.23" r="2.8" fill="#0f766e"><title>9302a7e · 2026-07-04 · +156 lines · Move markdown renderer to composites</title></circle>
    <circle cx="442.15" cy="299.04" r="2.8" fill="#0f766e"><title>3ac8890 · 2026-07-04 · +597 lines · Include choice inputs in thin start</title></circle>
    <circle cx="447.54" cy="292.25" r="2.8" fill="#0f766e"><title>442a4ad · 2026-07-04 · +2k lines · Backport scroll performance tooling</title></circle>
    <circle cx="452.92" cy="303.31" r="2.8" fill="#be123c"><title>5f0a8ac · 2026-07-04 · -265 lines · Rebuild scroll performance tooling around page targets</title></circle>
    <circle cx="458.31" cy="300.56" r="2.8" fill="#0f766e"><title>9a50fe8 · 2026-07-04 · +291 lines · Add normalized scroll performance scoring gates</title></circle>
    <circle cx="463.70" cy="301.88" r="2.8" fill="#0f766e"><title>cfb763f · 2026-07-04 · +25 lines · Document scroll performance autoresearch harness</title></circle>
    <circle cx="469.09" cy="301.97" r="2.8" fill="#0f766e"><title>94ed9a8 · 2026-07-04 · +7 lines · Generalize fallback marketing page map</title></circle>
    <circle cx="474.47" cy="299.01" r="2.8" fill="#0f766e"><title>2416a89 · 2026-07-04 · +604 lines · Make Serena warm optional</title></circle>
    <circle cx="479.86" cy="301.95" r="2.8" fill="#0f766e"><title>149a3cd · 2026-07-04 · +10 lines · Document warm optional agent harnesses</title></circle>
    <circle cx="485.25" cy="301.99" r="2.8" fill="#0f766e"><title>2cb3408 · 2026-07-04 · +2 lines · Link scroll autoresearch harness</title></circle>
    <circle cx="490.63" cy="301.23" r="2.8" fill="#0f766e"><title>a19ed47 · 2026-07-05 · +156 lines · Add repo intelligence benchmark pilot</title></circle>
    <circle cx="496.02" cy="300.19" r="2.8" fill="#0f766e"><title>6bf5bfe · 2026-07-06 · +366 lines · Ship template orchestration and review workflow updates</title></circle>
    <circle cx="501.41" cy="301.27" r="2.8" fill="#0f766e"><title>06f0121 · 2026-07-06 · +148 lines · Port generic layer flood loading mount</title></circle>
    <circle cx="506.79" cy="302.65" r="2.8" fill="#be123c"><title>774b513 · 2026-07-07 · -132 lines · Keep loading skip override only</title></circle>
    <circle cx="512.18" cy="301.91" r="2.8" fill="#0f766e"><title>840c057 · 2026-07-07 · +19 lines · Prevent loading skip flicker</title></circle>
    <circle cx="517.57" cy="301.69" r="2.8" fill="#0f766e"><title>d6c7083 · 2026-07-07 · +63 lines · Backport reveal automation overrides</title></circle>
    <circle cx="522.95" cy="301.58" r="2.8" fill="#0f766e"><title>74864db · 2026-07-07 · +85 lines · Refactor reveal scheduler internals</title></circle>
    <circle cx="528.34" cy="297.03" r="2.8" fill="#0f766e"><title>59c1b27 · 2026-07-07 · +1k lines · Backport reusable motion and UI references</title></circle>
    <circle cx="533.73" cy="301.83" r="2.8" fill="#0f766e"><title>8654222 · 2026-07-18 · +35 lines · Stage template profile architecture decisions</title></circle>
    <circle cx="539.12" cy="301.92" r="2.8" fill="#0f766e"><title>9dbf009 · 2026-07-18 · +16 lines · Stage Panel and Card architecture</title></circle>
    <circle cx="544.50" cy="301.94" r="2.8" fill="#0f766e"><title>7496b4d · 2026-07-18 · +13 lines · Stage parallel template profile architecture</title></circle>
    <circle cx="549.89" cy="301.89" r="2.8" fill="#0f766e"><title>138fc9a · 2026-07-18 · +23 lines · Stage dashboard foundation architecture</title></circle>
    <circle cx="555.28" cy="301.90" r="2.8" fill="#0f766e"><title>7c5dd72 · 2026-07-18 · +21 lines · Stage organization-first dashboard routes</title></circle>
    <circle cx="560.66" cy="301.86" r="2.8" fill="#0f766e"><title>2987908 · 2026-07-18 · +28 lines · Stage organization context architecture</title></circle>
    <circle cx="566.05" cy="301.92" r="2.8" fill="#0f766e"><title>35e8a85 · 2026-07-18 · +16 lines · Stage organization selection and record interactions</title></circle>
    <circle cx="571.44" cy="301.93" r="2.8" fill="#0f766e"><title>381da0b · 2026-07-18 · +15 lines · Stage organization selection and settings architecture</title></circle>
    <circle cx="576.82" cy="301.96" r="2.8" fill="#0f766e"><title>f751989 · 2026-07-18 · +9 lines · Stage template instance activation boundary</title></circle>
    <circle cx="582.21" cy="301.98" r="2.8" fill="#0f766e"><title>b96a62f · 2026-07-18 · +5 lines · Stage final architecture disposition</title></circle>
    <circle cx="587.60" cy="301.94" r="2.8" fill="#0f766e"><title>601cf77 · 2026-07-18 · +13 lines · Stage template visual system parity</title></circle>
    <circle cx="592.98" cy="301.99" r="2.8" fill="#0f766e"><title>4f0a56a · 2026-07-18 · +2 lines · Stage architecture consolidation safeguards</title></circle>
    <circle cx="598.37" cy="302.00" r="2.8" fill="#0f766e"><title>609bbad · 2026-07-19 · +1 lines · Pin Inference Console visual baseline</title></circle>
    <circle cx="603.76" cy="301.99" r="2.8" fill="#0f766e"><title>0f15cbd · 2026-07-19 · +3 lines · Stage final architecture structure</title></circle>
    <circle cx="609.15" cy="301.87" r="2.8" fill="#0f766e"><title>b107890 · 2026-07-19 · +27 lines · Stage additional component convergence</title></circle>
    <circle cx="614.53" cy="301.95" r="2.8" fill="#0f766e"><title>8475bf8 · 2026-07-19 · +10 lines · Stage component dependency and parity boundaries</title></circle>
    <circle cx="619.92" cy="301.03" r="2.8" fill="#0f766e"><title>ff2c9de · 2026-07-19 · +196 lines · Consolidate template architecture</title></circle>
    <circle cx="625.31" cy="302.00" r="2.8" fill="#0f766e"><title>90fd623 · 2026-07-19 · +1 lines · Complete architecture parity review</title></circle>
    <circle cx="630.69" cy="301.73" r="2.8" fill="#0f766e"><title>58256ab · 2026-07-19 · +55 lines · Extend dashboard entity architecture</title></circle>
    <circle cx="636.08" cy="301.96" r="2.8" fill="#0f766e"><title>3ee4d97 · 2026-07-19 · +8 lines · Refine dashboard presentation boundaries</title></circle>
    <circle cx="641.47" cy="301.91" r="2.8" fill="#0f766e"><title>7469a0a · 2026-07-19 · +19 lines · Stage authentication lifecycle architecture</title></circle>
    <circle cx="646.85" cy="301.97" r="2.8" fill="#0f766e"><title>9b66eee · 2026-07-19 · +7 lines · Stage dashboard component state contracts</title></circle>
    <circle cx="652.24" cy="301.99" r="2.8" fill="#0f766e"><title>efdde78 · 2026-07-19 · +2 lines · Stage selective component boundaries</title></circle>
    <circle cx="657.63" cy="301.97" r="2.8" fill="#0f766e"><title>eda5e92 · 2026-07-19 · +7 lines · Stage command and input convergence</title></circle>
    <circle cx="663.02" cy="301.98" r="2.8" fill="#0f766e"><title>63c133a · 2026-07-19 · +5 lines · Stage remaining reusable surface contracts</title></circle>
    <circle cx="668.40" cy="301.79" r="2.8" fill="#0f766e"><title>feb352b · 2026-07-19 · +43 lines · Consolidate source rescan architecture</title></circle>
    <circle cx="673.79" cy="302.00" r="2.8" fill="#64748b"><title>8dcc3f2 · 2026-07-19 · 0 lines · Review consolidated architecture contracts</title></circle>
    <circle cx="679.18" cy="300.69" r="2.8" fill="#0f766e"><title>5061682 · 2026-07-19 · +265 lines · Refine thin-start and shared Card surfaces</title></circle>
    <circle cx="684.56" cy="301.49" r="2.8" fill="#0f766e"><title>6cb2c99 · 2026-07-19 · +103 lines · Initialize filesystem-backed inference port</title></circle>
    <circle cx="689.95" cy="272.83" r="2.8" fill="#0f766e"><title>5d79e06 · 2026-07-19 · +5.9k lines · Port shared inference visual system</title></circle>
    <circle cx="695.34" cy="291.14" r="2.8" fill="#0f766e"><title>66a08e1 · 2026-07-19 · +2.2k lines · Add provider-neutral auth and organizations</title></circle>
    <circle cx="700.72" cy="298.32" r="2.8" fill="#0f766e"><title>8140fc3 · 2026-07-20 · +744 lines · Build registry-driven dashboard shell</title></circle>
    <circle cx="706.11" cy="281.45" r="2.8" fill="#0f766e"><title>f88f569 · 2026-07-20 · +4.2k lines · Complete dashboard reference entity port</title></circle>
    <circle cx="711.50" cy="301.86" r="2.8" fill="#0f766e"><title>d5cd83f · 2026-07-20 · +29 lines · Match Card defaults to pinned source</title></circle>
    <circle cx="716.88" cy="301.85" r="2.8" fill="#0f766e"><title>0faa24a · 2026-07-20 · +31 lines · Make labeled dividers surface neutral</title></circle>
    <circle cx="722.27" cy="301.74" r="2.8" fill="#0f766e"><title>a2da053 · 2026-07-20 · +53 lines · Stage async mutation policy port</title></circle>
    <circle cx="727.66" cy="301.96" r="2.8" fill="#0f766e"><title>3c046bb · 2026-07-20 · +9 lines · Consolidate async mutation architecture</title></circle>
    <circle cx="733.05" cy="302.00" r="2.8" fill="#64748b"><title>c3f7e4d · 2026-07-20 · 0 lines · Review mutation architecture consolidation</title></circle>
    <circle cx="738.43" cy="301.94" r="2.8" fill="#0f766e"><title>b0c0505 · 2026-07-20 · +12 lines · Match InputFrame defaults to pinned source</title></circle>
    <circle cx="743.82" cy="299.08" r="2.8" fill="#0f766e"><title>415a11d · 2026-07-20 · +590 lines · Standardize modal mutation handoffs</title></circle>
    <circle cx="749.21" cy="301.56" r="2.8" fill="#0f766e"><title>b6855b8 · 2026-07-20 · +89 lines · Reorganize Button hierarchy and danger tone</title></circle>
    <circle cx="754.59" cy="244.80" r="2.8" fill="#0f766e"><title>7942996 · 2026-07-23 · +12k lines · Checkpoint accumulated port review work</title></circle>
    <circle cx="759.98" cy="302.00" r="2.8" fill="#64748b"><title>b5e0fc6 · 2026-07-23 · 0 lines · Integrate mutation policy with polished port</title></circle>
    <circle cx="765.37" cy="296.93" r="2.8" fill="#0f766e"><title>f8aa224 · 2026-07-23 · +1k lines · Harden dependencies and close out inference port</title></circle>
    <circle cx="770.75" cy="302.00" r="2.8" fill="#64748b"><title>ec620dc · 2026-07-23 · 0 lines · Keep dependency pinning idempotent</title></circle>
    <circle cx="776.14" cy="301.99" r="2.8" fill="#0f766e"><title>8f9e913 · 2026-07-23 · +3 lines · Finalize inference port handoff</title></circle>
    <circle cx="781.53" cy="301.81" r="2.8" fill="#0f766e"><title>c705d0c · 2026-07-23 · +39 lines · Stage benchmark evidence recording policy</title></circle>
    <circle cx="786.91" cy="298.52" r="2.8" fill="#0f766e"><title>71ae98c · 2026-07-23 · +704 lines · Make intelligence benchmarks evidence driven</title></circle>
    <circle cx="792.30" cy="302.09" r="2.8" fill="#be123c"><title>01a4f1e · 2026-07-23 · -18 lines · Narrow intelligence architecture to cleanup</title></circle>
    <circle cx="797.69" cy="301.99" r="2.8" fill="#0f766e"><title>5cc2c7d · 2026-07-23 · +3 lines · Clarify benchmark cleanup disposition</title></circle>
    <circle cx="803.08" cy="293.88" r="2.8" fill="#0f766e"><title>1d4a3c4 · 2026-07-23 · +1.6k lines · Add prune-aware dashboard intelligence</title></circle>
    <circle cx="808.46" cy="298.22" r="2.8" fill="#0f766e"><title>c2bd239 · 2026-07-23 · +764 lines · Integrate service assembly into homepage hero</title></circle>
    <circle cx="813.85" cy="303.52" r="2.8" fill="#be123c"><title>867bf1a · 2026-07-23 · -308 lines · Reorganize frontend ownership surfaces</title></circle>
    <circle cx="819.24" cy="302.00" r="2.8" fill="#64748b"><title>581e7e7 · 2026-07-23 · 0 lines · Integrate template intelligence updates</title></circle>
    <circle cx="824.62" cy="302.00" r="2.8" fill="#64748b"><title>ef95119 · 2026-07-23 · 0 lines · Integrate homepage service assembly</title></circle>
    <circle cx="830.01" cy="302.00" r="2.8" fill="#64748b"><title>5cdcde7 · 2026-07-23 · 0 lines · Integrate frontend ownership cleanup</title></circle>
    <circle cx="835.40" cy="301.99" r="2.8" fill="#0f766e"><title>8ff7fe1 · 2026-07-23 · +2 lines · Align thin profile integration contracts</title></circle>
    <circle cx="840.78" cy="302.11" r="2.8" fill="#be123c"><title>5b31bc3 · 2026-07-23 · -23 lines · Make home hero callouts hover only</title></circle>
    <circle cx="846.17" cy="301.92" r="2.8" fill="#0f766e"><title>7c49f3b · 2026-07-23 · +17 lines · Restore home hero callout layout motion</title></circle>
    <circle cx="851.56" cy="301.84" r="2.8" fill="#0f766e"><title>a571de5 · 2026-07-23 · +32 lines · Show dashboard redirect state reliably</title></circle>
    <circle cx="856.94" cy="302.00" r="2.8" fill="#64748b"><title>94ca212 · 2026-07-23 · 0 lines · Center dashboard status frames</title></circle>
    <circle cx="862.33" cy="301.98" r="2.8" fill="#0f766e"><title>d9d3354 · 2026-07-23 · +5 lines · Canonicalize dashboard overview route</title></circle>
    <circle cx="867.72" cy="299.44" r="2.8" fill="#0f766e"><title>732b630 · 2026-07-24 · +518 lines · Standardize dashboard page surface ownership</title></circle>
    <circle cx="873.11" cy="300.96" r="2.8" fill="#0f766e"><title>95ae3ad · 2026-07-24 · +211 lines · Split internal demo catalogue by page family</title></circle>
    <circle cx="878.49" cy="297.49" r="2.8" fill="#0f766e"><title>de19f91 · 2026-07-25 · +911 lines · Add skeleton overlap geometry pilot</title></circle>
    <circle cx="883.88" cy="305.03" r="2.8" fill="#be123c"><title>37cee75 · 2026-07-25 · -613 lines · Ship production updates</title></circle>
    <circle cx="889.27" cy="300.50" r="2.8" fill="#0f766e"><title>96248e8 · 2026-07-26 · +304 lines · feat: add template profile materialization</title></circle>
    <circle cx="894.65" cy="295.77" r="2.8" fill="#0f766e"><title>0bf79f4 · 2026-07-26 · +1.3k lines · feat: add positive template assembly engine</title></circle>
    <circle cx="900.04" cy="300.83" r="2.8" fill="#0f766e"><title>3578e63 · 2026-07-26 · +236 lines · Ship production updates</title></circle>
    <circle cx="905.43" cy="302.54" r="2.8" fill="#be123c"><title>876b384 · 2026-07-26 · -109 lines · Ship production updates</title></circle>
    <circle cx="910.81" cy="301.52" r="2.8" fill="#0f766e"><title>c7b96f8 · 2026-07-26 · +97 lines · Persist fixture sessions across redirects</title></circle>
    <circle cx="916.20" cy="301.95" r="2.8" fill="#0f766e"><title>c403398 · 2026-07-26 · +11 lines · fix: separate compact header menu gutters</title></circle>
    <circle cx="921.59" cy="301.60" r="2.8" fill="#0f766e"><title>231f622 · 2026-07-26 · +81 lines · chore: add compact header architecture demo</title></circle>
    <circle cx="926.97" cy="301.88" r="2.8" fill="#0f766e"><title>d28af2d · 2026-07-26 · +25 lines · chore: extend header architecture demo to desktop</title></circle>
    <circle cx="932.36" cy="301.99" r="2.8" fill="#0f766e"><title>fb3a789 · 2026-07-26 · +3 lines · fix: decentralize desktop header gutters</title></circle>
    <circle cx="937.75" cy="302.52" r="2.8" fill="#be123c"><title>1120941 · 2026-07-26 · -105 lines · Ship production updates</title></circle>
    <circle cx="943.14" cy="301.76" r="2.8" fill="#0f766e"><title>3b74ada · 2026-07-28 · +48 lines · Ship production updates</title></circle>
    <circle cx="948.52" cy="301.24" r="2.8" fill="#0f766e"><title>edd255a · 2026-07-29 · +154 lines · Ship production updates</title></circle>
    <circle cx="953.91" cy="302.00" r="2.8" fill="#64748b"><title>d151160 · 2026-07-29 · 0 lines · feat: route marketing CTAs to dashboard login</title></circle>
    <circle cx="959.30" cy="301.99" r="2.8" fill="#0f766e"><title>3c96130 · 2026-07-29 · +3 lines · fix: align account identity spacing</title></circle>
    <circle cx="964.68" cy="302.06" r="2.8" fill="#be123c"><title>bfe407a · 2026-07-29 · -12 lines · refactor: compose settings account identity</title></circle>
    <circle cx="970.07" cy="302.00" r="2.8" fill="#64748b"><title>ce958b1 · 2026-07-29 · 0 lines · fix: align organization identity spacing</title></circle>
    <circle cx="975.46" cy="301.98" r="2.8" fill="#0f766e"><title>716eaad · 2026-07-29 · +4 lines · fix: unify identity presentation spacing</title></circle>
    <circle cx="980.84" cy="302.18" r="2.8" fill="#be123c"><title>15e062b · 2026-07-29 · -36 lines · fix: unify entity identity presentation</title></circle>
    <circle cx="986.23" cy="301.46" r="2.8" fill="#0f766e"><title>a6ceefa · 2026-07-29 · +109 lines · refactor: centralize entity identity layout</title></circle>
    <circle cx="991.62" cy="303.24" r="2.8" fill="#be123c"><title>5b5a3d7 · 2026-07-29 · -250 lines · refactor: improve code clarity and modularize dropdown</title></circle>
    <circle cx="997.01" cy="299.91" r="2.8" fill="#0f766e"><title>146bfc2 · 2026-07-29 · +422 lines · refactor: decouple positive assembly from prune</title></circle>
    <circle cx="1002.39" cy="300.99" r="2.8" fill="#0f766e"><title>ab04dd1 · 2026-07-29 · +204 lines · feat: add positive template content selection</title></circle>
    <circle cx="1007.78" cy="304.39" r="2.8" fill="#be123c"><title>315a5a1 · 2026-07-29 · -483 lines · refactor: make positive assembly the only project creator</title></circle>
    <circle cx="1013.17" cy="310.09" r="2.8" fill="#be123c"><title>6f21c2f · 2026-07-29 · -1.6k lines · refactor: retire template prune compatibility</title></circle>
    <circle cx="1018.55" cy="302.52" r="2.8" fill="#be123c"><title>7dbf647 · 2026-07-29 · -106 lines · refactor: remove legacy prune terminology</title></circle>
    <circle cx="1023.94" cy="301.53" r="2.8" fill="#0f766e"><title>83612d2 · 2026-07-29 · +94 lines · refactor: modularize markdown editor internals</title></circle>
    <circle cx="1029.33" cy="301.79" r="2.8" fill="#0f766e"><title>abf60a3 · 2026-07-29 · +42 lines · refactor: namespace markdown composite exports</title></circle>
    <circle cx="1034.71" cy="301.88" r="2.8" fill="#0f766e"><title>722a81f · 2026-07-29 · +24 lines · docs: clarify component API ownership</title></circle>
    <circle cx="1040.10" cy="302.00" r="2.8" fill="#64748b"><title>839828e · 2026-07-29 · 0 lines · docs: name component API patterns semantically</title></circle>
    <circle cx="1045.49" cy="313.77" r="2.8" fill="#be123c"><title>7873a45 · 2026-07-29 · -2.4k lines · refactor: organize documentation by ownership</title></circle>
    <circle cx="1050.87" cy="299.46" r="2.8" fill="#0f766e"><title>e72d405 · 2026-07-29 · +513 lines · docs: organize component conventions by pattern</title></circle>
    <circle cx="1056.26" cy="304.49" r="2.8" fill="#be123c"><title>812190e · 2026-07-30 · -504 lines · Ship production updates</title></circle>
    <circle cx="1061.65" cy="287.97" r="2.8" fill="#0f766e"><title>666f822 · 2026-07-30 · +2.8k lines · Ship production updates</title></circle>
    <circle cx="1067.04" cy="302.27" r="2.8" fill="#be123c"><title>f1580f9 · 2026-07-30 · -54 lines · Ship production updates</title></circle>
    <circle cx="1072.42" cy="288.11" r="2.8" fill="#0f766e"><title>7f7f5de · 2026-07-30 · +2.8k lines · Ship production updates</title></circle>
    <circle cx="1077.81" cy="301.60" r="2.8" fill="#0f766e"><title>8aced5a · 2026-07-30 · +81 lines · Ship production updates</title></circle>
    <circle cx="1083.20" cy="147.67" r="2.8" fill="#0f766e"><title>344e7e0 · 2026-08-02 · +31k lines · Ship production updates</title></circle>
    <circle cx="1088.58" cy="301.72" r="2.8" fill="#0f766e"><title>42b2d62 · 2026-08-02 · +57 lines · Ship production updates</title></circle>
    <circle cx="1093.97" cy="301.98" r="2.8" fill="#0f766e"><title>4814b0c · 2026-08-02 · +5 lines · fix: cap marketing header links</title></circle>
    <circle cx="1099.36" cy="301.65" r="2.8" fill="#0f766e"><title>4ff3707 · 2026-08-02 · +71 lines · Ship production updates</title></circle>
    <circle cx="1104.74" cy="301.98" r="2.8" fill="#0f766e"><title>9850fd7 · 2026-08-02 · +4 lines · style: compact dashboard shell</title></circle>
    <circle cx="1110.13" cy="301.96" r="2.8" fill="#0f766e"><title>e35ed97 · 2026-08-02 · +9 lines · style: compact dashboard navigation</title></circle>
    <circle cx="1115.52" cy="301.94" r="2.8" fill="#0f766e"><title>a4d4da9 · 2026-08-02 · +13 lines · fix: avoid empty sidebar accordions</title></circle>
    <circle cx="1120.90" cy="302.00" r="2.8" fill="#0f766e"><title>3c9d5e2 · 2026-08-02 · +1 lines · style: align sidebar disclosure action</title></circle>
    <circle cx="1126.29" cy="302.00" r="2.8" fill="#0f766e"><title>80f7310 · 2026-08-02 · +1 lines · fix: constrain collapsed sidebar track</title></circle>
    <circle cx="1131.68" cy="301.98" r="2.8" fill="#0f766e"><title>cf20f08 · 2026-08-02 · +5 lines · fix: scale compact organization avatar</title></circle>
    <circle cx="1137.07" cy="301.99" r="2.8" fill="#0f766e"><title>f66c88b · 2026-08-02 · +3 lines · style: refine compact organization avatar</title></circle>
    <circle cx="1142.45" cy="301.98" r="2.8" fill="#0f766e"><title>7385a5a · 2026-08-02 · +4 lines · fix: align compact avatar with nav rows</title></circle>
    <circle cx="1147.84" cy="302.00" r="2.8" fill="#64748b"><title>a687886 · 2026-08-02 · 0 lines · style: cap compact organization avatar</title></circle>
    <circle cx="1153.23" cy="302.00" r="2.8" fill="#0f766e"><title>64b5aa3 · 2026-08-02 · +1 lines · fix: show logo in open compact sidebar</title></circle>
    <circle cx="1158.61" cy="301.99" r="2.8" fill="#0f766e"><title>cfd4d13 · 2026-08-02 · +2 lines · fix: restore assistant composer surface</title></circle>
    <circle cx="1164.00" cy="300.45" r="2.8" fill="#0f766e"><title>698016c · 2026-08-02 · +314 lines · Ship production updates</title></circle>
  </g>
  <g class="axis-label">
    <text x="92.00" y="532" text-anchor="start">2025-08-24</text>
    <text x="625.31" y="532" text-anchor="middle">2026-07-19</text>
    <text x="1164.00" y="532" text-anchor="end">2026-08-02</text>
    <text x="1164" y="68" text-anchor="end">Chronological commits →</text>
  </g>
</svg>
