<svg xmlns="http://www.w3.org/2000/svg" width="40" height="40" fill="none" viewBox="0 0 40 40">
  <path fill="#111416" d="M11.152 27.151a1.2 1.2 0 1 0 1.697 1.698l-1.697-1.698Zm9.697-6.302a1.2 1.2 0 1 0-1.697-1.698l1.697 1.698Zm-1.697-1.698a1.2 1.2 0 1 0 1.697 1.698l-1.697-1.698Zm9.697-6.303a1.2 1.2 0 1 0-1.697-1.697l1.697 1.697Zm-8 6.303a1.2 1.2 0 1 0-1.697 1.698l1.697-1.698Zm6.303 9.698a1.2 1.2 0 1 0 1.697-1.698l-1.697 1.698Zm-8-8a1.2 1.2 0 1 0 1.697-1.698l-1.697 1.698Zm-6.303-9.697a1.2 1.2 0 0 0-1.697 1.697l1.697-1.697Zm0 17.697 8-8-1.697-1.698-8 8 1.697 1.698Zm8-8 8-8-1.697-1.697-8 8 1.697 1.697Zm-1.697 0 8 8 1.697-1.698-8-8-1.697 1.698Zm1.697-1.698-8-8-1.697 1.697 8 8 1.697-1.697Z"/>
</svg>
